<?xml version="1.0" encoding="utf-8"?>
<!-- Generator: Adobe Illustrator 25.4.1, SVG Export Plug-In . SVG Version: 6.00 Build 0)  -->
<svg version="1.1" xmlns="http://www.w3.org/2000/svg" xmlns:xlink="http://www.w3.org/1999/xlink" x="0px" y="0px"
	 viewBox="0 0 510.24 283.46" style="enable-background:new 0 0 510.24 283.46;" xml:space="preserve">
<style type="text/css">
	.st0{fill:#595E4F;}
	.st1{display:none;}
	.st2{display:inline;}
	.st3{fill:#595E4F;stroke:#FFFFFF;stroke-width:0.5;stroke-miterlimit:10;}
	.st4{fill:#595E4F;stroke:#595E4F;stroke-miterlimit:10;}
</style>
<g id="Layer_4">
	<g>
		<g>
			<path class="st0" d="M298.45,94.38c1.16-0.24,2.32-0.71,3.48-0.7c13.58,0.1,27.16,0.21,40.74,0.48c2.79,0.05,5.6,0.59,8.33,1.2
				c11.94,2.66,18.82,10.23,19.51,21.29c0.73,11.65-5.73,21.13-17.08,25.1c-1.5,0.52-3.02,1.01-4.09,1.37
				c7.19,10.51,14.3,20.82,21.33,31.19c3.69,5.45,7.81,10.32,14.5,12.15c1.1,0.3,2.23,0.48,2.68,1.38
				c-15.46,4.82-24.46,1.56-32.42-10.62c-5.52-8.45-10.7-17.12-16.07-25.67c-3.11-4.95-9.63-7.42-14.85-5.29
				c-1.01,0.41-1.82,2.55-1.84,3.91c-0.12,9.28,0.11,18.56-0.03,27.83c-0.07,5.01,2.19,7.71,6.96,8.69c1.24,0.25,2.4,0.86,3.6,1.3
				c-0.11,0.39-0.22,0.79-0.33,1.18c-11.56,0-23.11,0-34.67,0c-0.13-0.33-0.26-0.66-0.39-1c1.47-0.56,2.92-1.21,4.43-1.68
				c3.77-1.17,5.8-3.52,5.79-7.62c-0.05-24.85-0.08-49.7-0.04-74.55c0.01-4.13-1.77-6.52-5.8-7.38c-1.32-0.28-2.57-0.91-3.85-1.38
				C298.36,95.15,298.4,94.76,298.45,94.38z M322.59,119.42c0.01,0,0.02,0,0.03,0c0,3.31,0.01,6.62,0,9.93
				c-0.03,12.55-0.03,12.55,12.53,11.78c12.72-0.78,19.6-7.88,20.02-20.65c0.4-12.33-6.1-20.11-18.3-21.71
				c-3.1-0.41-6.27-0.3-9.4-0.55c-3.56-0.28-5.11,1.03-4.94,4.81C322.78,108.48,322.59,113.95,322.59,119.42z"/>
			<path class="st0" d="M233.02,92.04c28.39,0.06,47.65,19.97,47.57,49.19c-0.08,29.04-20.91,50.37-49.01,50.18
				c-28.45-0.19-48.1-20.62-47.84-49.75C183.99,112.33,204.2,91.99,233.02,92.04z M199.31,139.13c0.03,6.52,0.96,12.98,2.6,18.83
				c2.52,9,7.54,17.51,15.12,22.98s17.85,7.54,26.57,4.17c7.07-2.73,12.55-8.73,15.82-15.57c3.26-6.84,4.49-14.48,4.86-22.05
				c0.63-12.73-1.29-26.09-8.61-36.52s-21.01-17.04-33.19-13.28c-6.64,2.05-12.21,6.92-15.9,12.82
				C201.43,118.71,199.27,128.98,199.31,139.13z"/>
			<path class="st0" d="M493.08,188.96c-12.31,0-23.77,0-35.24,0c-0.06-0.35-0.12-0.7-0.19-1.05c0.94-0.39,1.86-0.86,2.83-1.17
				c5.63-1.79,6.88-4,4.96-9.68c-1.91-5.64-3.96-11.25-6.31-16.72c-0.54-1.25-2.53-2.62-3.88-2.65
				c-10.44-0.21-20.89-0.24-31.33,0.07c-1.56,0.05-3.76,1.81-4.45,3.33c-2.33,5.11-4.21,10.44-6.09,15.75
				c-2.09,5.91-1.19,7.55,4.75,9.53c1.13,0.38,2.21,0.87,3.12,2.48c-8.63,0-17.26,0-26.54,0c0.78-0.94,1.2-1.97,1.83-2.11
				c6.41-1.47,9.41-6.04,11.63-11.77c9.94-25.62,20.09-51.17,30.1-76.76c1.18-3.03,2.18-5.4,6.39-5.33c3.97,0.07,4.5,2.58,5.5,5.15
				c10.21,26.23,20.46,52.44,30.57,78.71c1.9,4.93,4.45,8.82,9.92,10.13C491.37,187.04,491.92,187.93,493.08,188.96z M439.6,108.41
				c-5.92,15.39-11.35,29.49-16.95,44.07c11.42,0,22.19,0,33.61,0C450.74,137.9,445.46,123.91,439.6,108.41z"/>
			<path class="st0" d="M85.12,113.11c-0.65,0.25-3.05-4.24-3.41-5.1c-1.25-2.93-2.54-6.24-5.53-7.79c-2.9-1.5-6.59-1.36-9.75-1.38
				c-6.79-0.04-13.59,0.1-20.37-0.07c-3.04-0.07-4.09,1.09-4.07,4.05c0.08,10.6,0.07,21.2-0.03,31.8c-0.03,2.85,1.19,3.75,3.9,3.68
				c5.63-0.14,11.27-0.19,16.89-0.05c5.02,0.12,7.59-2.47,8.78-7.04c0.37-1.44,1.04-2.81,1.57-4.22c0.44,0.12,0.88,0.24,1.32,0.36
				c0,8.64,0,17.28,0,25.93c-0.36,0.21-0.72,0.42-1.08,0.62c-0.74-1.21-1.75-2.33-2.17-3.64c-2.13-6.74-2.66-7.22-9.76-7.24
				c-5.3-0.02-10.62-0.19-15.89,0.2c-1.25,0.09-3.34,2.15-3.37,3.34c-0.24,10.76-0.07,21.53-0.1,32.3
				c-0.01,4.39,2.32,6.67,6.31,7.68c1.46,0.37,2.92,0.74,4.38,1.11c-0.06,0.44-0.13,0.88-0.19,1.32c-11.7,0-23.41,0-35.11,0
				c-0.09-0.39-0.19-0.77-0.28-1.16c1.38-0.42,2.74-0.92,4.14-1.25c4.08-0.97,6.33-3.43,6.34-7.7c0.01-25.01-0.03-50.02,0-75.04
				c0-3.8-2.05-5.73-5.41-6.71c-1.63-0.47-3.27-0.91-4.9-1.36c0.03-0.48,0.06-0.95,0.09-1.43c1.49-0.19,2.98-0.55,4.47-0.55
				c20.04-0.07,40.09-0.04,60.13-0.2c3.18-0.02,4.52,0.89,4.4,4.19c-0.1,2.84-0.11,5.69-0.1,8.53c0.01,1.48,0.02,2.95,0.03,4.43
				c0,0.48,0.11,1.71-0.32,1.95C85.82,112.81,85.72,112.87,85.12,113.11z"/>
			<path class="st0" d="M102.22,94.3c11.55,0,23.1,0,34.65,0c0.11,0.38,0.22,0.76,0.33,1.14c-1.01,0.44-1.98,1.04-3.04,1.3
				c-6.02,1.47-7.41,3.01-7.56,9.17c-0.16,6.29-0.15,12.59-0.15,18.89c0,18.23,0.12,36.45-0.01,54.68
				c-0.03,3.64,1.07,5.04,4.79,4.96c7.12-0.16,14.25,0.18,21.37,0.06c11.02-0.19,13.21-2,16.92-12.4c0.73-2.06,0.12-5.94,5.02-4.85
				c-0.58,7.18-1.16,14.37-1.77,21.98c-23.75,0-47.25,0-70.75,0c-0.11-0.37-0.23-0.74-0.34-1.11c1.3-0.48,2.58-1.08,3.92-1.41
				c4.26-1.04,6.57-3.55,6.57-8.07c0.05-24.52,0.12-49.05,0.18-73.57c0.01-4.43-2.03-7.17-6.46-8.08c-1.37-0.28-2.68-0.81-4.02-1.22
				C101.99,95.28,102.11,94.79,102.22,94.3z"/>
		</g>
	</g>
</g>
<g id="text_solo" class="st1">
	<g class="st2">
		<g>
			<path class="st0" d="M263.31,139.76c-23.83,4.67-36.8,31.7-27.84,53.54c2.3,5.6,6.14,10.92,11.8,13.48
				c5.78,2.61,12.78,1.95,18.5-0.78c5.72-2.74,10.27-7.35,13.87-12.42c7.25-10.24,10.98-22.75,10.48-35.13
				c-0.21-5.2-1.32-10.71-5.08-14.46c-3.79-3.77-9.59-5.02-15.03-4.93C267.69,139.1,265.46,139.34,263.31,139.76z M290.92,134.72
				c10.17,6.01,26.26,14.29,24.97,0.51c-0.36-3.89-0.58-7.91,0.59-11.7c2.02-6.52,6.6-10.14,11.37-9.42
				c4.66,0.71,7.28,4.52,7.64,11.1c0.04,0.73,0.05,1.45,0.05,2.18c-0.01,9.52,9.84,9.49,16.71,7.96c2.44-0.54,14.17-4.79,15.98-2.22
				c2.89,4.09,0.54,7.69-1.24,11.62c-6.55,14.41-12.34,29.11-16.75,44.34c-1.98,6.83-2,19.39,6.51,21.94
				c8.94,2.68,20.45-9.66,24.18-16.54c3.81-7.03,4.51-15.25,6.4-23.02c2.84-11.69,8.56-22.67,16.51-31.7
				c7.34-8.34,17.13-15.23,28.19-16.22c11.07-0.99,23.19,5.38,26.16,16.09c3.11-8.87,12.85-14.91,22.18-13.75
				c-6.52,25.27-17.97,50.05-16.53,76.1c0.55,9.92,9.01,9.7,14.98,3.7c6.57-6.61,11.95-14.4,15.8-22.89
				c2.19,1.58,4.38,3.16,6.57,4.73c-3.92,12.15-12.33,22.79-23.25,29.4c-5.3,3.21-12.2,5.04-18.34,3.48
				c-7.23-1.84-10.02-7.97-10.93-14.84c-0.65-4.95-0.34-9.99-1.03-14.94c-5.96,9.05-12.11,18.31-20.87,24.7
				c-6.73,4.91-15.57,7.94-23.47,5.26c-9.1-3.09-14.27-12.59-17.48-21.64c-6.16,7.76-12.79,15.64-21.77,19.84
				c-8.98,4.19-20.97,3.61-27.37-3.95c-8.86-10.46-4.66-29.27,0.56-40.45c4.2-9.02,8.71-17.89,13.26-27.17
				c-3.88-0.37-7.78-0.55-11.67-0.75c-3.05-0.16-8.87-1.69-11.33,0.37c-7.55,6.31-13.32,7.4-25.63,5.96
				c2.03,5.23,0.81,13.95,0.74,16.42c-0.59,20.93-16.31,42.29-35.93,49.63c-9.14,3.42-19.58,3.51-28.73,0.05
				c-10.3-3.9-14.63-11.23-20.56-19.75c-1.55,2.09-2.76,3.8-4.05,5.44c-6.3,8.04-13.5,14.74-24.11,16.56
				c-11.44,1.96-20.59-2.97-22.5-14.33c-1.54-9.15-1.49-18.87-0.36-28.13c4.36-35.79,14.36-70.1,29.27-102.92
				c3.6-7.93,8.77-18.88,17-22.89c21.75-10.6,14.66,30.14,12.19,39.97c-6.03,24.03-19.24,45.93-34.07,65.51
				c-5.47,7.22-8.13,15.84-8.75,24.81c-0.64,9.37-3.36,30.65,12.03,27.47c7.18-1.49,12.9-9.01,16.64-14.77
				c4.3-6.62,5.3-14.17,6.82-21.71c1.96-9.75,5.97-18.95,11.89-26.94c4.02-5.43,12.65-14.32,21.76-17.16
				c10.48-3.26,22.11-4.55,32.31,0.25C284.64,130.86,287.43,132.66,290.92,134.72z M402.48,187.89c0.35,8.07,4.25,20.7,14.68,19.11
				c6.21-0.95,11.29-6.98,14.67-11.85c7.32-10.56,12.99-22.66,15.45-35.32c1.68-8.67,2.15-26.2-10.26-27.25
				c-8.71-0.74-17.13,8.25-21.7,14.67C407.32,158.49,401.88,173.98,402.48,187.89z M187.69,151c-0.02,0.1-0.04,0.2-0.06,0.3
				c16.5-19.51,27.99-43.24,33.05-68.29c1.12-5.52,1.93-11.17,1.39-16.77c-0.18-1.87-0.61-3.9-2.09-5.07
				c-6.27-4.95-13.23,19.32-14.43,22.87C198.16,105.94,192.19,128.32,187.69,151z"/>
			<path class="st0" d="M15.97,186.98c6.5-3.51,12.12-6.93,20.11-4.7c-0.64-0.18-3.79,4.96-4.15,5.65
				c-1.97,3.78-3.75,7.66-5.04,11.73c-1.21,3.81-1.96,7.4-0.66,11.33c1.33,4,4.29,6.98,7.94,8.96c11.52,6.24,29.91,5.29,38.46-5.53
				c8.97-11.35,14.29-24.43,17.93-38.24c2.17-8.21,3.86-16.56,6.06-26.15c-9.38,0.65-17.77,1.23-26.08,1.81
				c0.59-5.5,4.73-9.52,11.88-10.73c3.39-0.57,6.92-0.99,10.32-0.69c4.49,0.4,5.7-1.73,6.77-5.62c2.99-10.84,5.96-21.71,9.84-32.27
				c3.94-10.7,9.4-20.29,14.69-30.34c-0.43,0.81-14.91-2.47-16.49-2.74c-5.77-0.97-11.56-1.88-17.39-2.43
				c-11.08-1.04-23.05-1.08-33.62,2.86c-12.91,4.81-21.17,17.88-16.49,31.58c3.36,9.84,12.89,16.62,23.26,16.71
				c1.73,0.01,3.47,0,5.44,0c-2.64,5.65-12.69,9.32-20.07,7.62c-9.03-2.09-14.42-8.01-17.01-16.68c-4.99-16.72,1.89-34.1,17.6-44.43
				c17.09-11.23,36.2-12.31,55.68-10.46c13.92,1.32,27.77,3.24,41.67,4.77c8.71,0.96,17.52,1.72,26.28,0.91
				c9.2-0.85,16.06-4.24,24.37-7.83c-0.07,1.41,0.2,3.46-0.34,5.27c-6.52,21.76-39.58,20.62-56.77,17.56
				c-5.87-1.05-8.16,2.82-9.65,7.8c-3.38,11.32-6.4,22.75-9.25,34.22c-1.73,6.99-2.64,14.18-3.94,21.36c14.56,0,28.4,0,42.18,0
				c-0.5,5.99-4.73,10.65-12.93,11.58c-7.19,0.82-14.52,0.48-21.78,0.47c-9.52-0.02-9.55-0.11-11.17,9.03
				c-2.76,15.48-6.86,30.41-15.08,44.1c-9.65,16.07-26.18,27.65-45.2,28.73c-9.49,0.54-21.74-1.31-29.61-7.11
				c-5.06-3.74-8.09-9.3-9.83-15.24c-0.89-3.04-1.47-6.17-1.94-9.3c-0.11-0.74-2.17-9.16-2.91-8.63
				C9.05,191.94,15.97,186.98,15.97,186.98z"/>
		</g>
	</g>
</g>
<g id="text" class="st1">
	<g class="st2">
		<g>
			<path class="st3" d="M355.2,140.65c-13.12,2.57-20.26,17.46-15.33,29.48c1.26,3.08,3.38,6.01,6.5,7.42
				c3.18,1.44,7.04,1.08,10.18-0.43c3.15-1.51,5.66-4.05,7.64-6.84c3.99-5.64,6.05-12.53,5.77-19.34c-0.12-2.86-0.73-5.9-2.8-7.96
				c-2.08-2.07-5.28-2.76-8.28-2.71C357.61,140.28,356.38,140.42,355.2,140.65z M370.4,137.87c5.6,3.31,14.46,7.87,13.75,0.28
				c-0.2-2.14-0.32-4.36,0.33-6.44c1.11-3.59,3.63-5.59,6.26-5.19c2.57,0.39,4.01,2.49,4.21,6.11c0.02,0.4,0.03,0.8,0.03,1.2
				c0,5.24,5.42,5.23,9.2,4.38c1.34-0.3,7.8-2.64,8.8-1.22c1.59,2.25,0.3,4.24-0.69,6.4c-3.61,7.94-6.79,16.03-9.23,24.41
				c-1.09,3.76-1.1,10.68,3.58,12.08c4.92,1.47,11.26-5.32,13.32-9.11c2.1-3.87,2.48-8.4,3.52-12.68
				c1.57-6.44,4.71-12.48,9.09-17.45c4.04-4.59,9.43-8.39,15.52-8.93c6.09-0.54,12.77,2.96,14.4,8.86
				c1.71-4.89,7.08-8.21,12.21-7.57c-3.59,13.91-9.9,27.56-9.1,41.91c0.3,5.46,4.96,5.34,8.25,2.04c3.62-3.64,6.58-7.93,8.7-12.61
				c1.21,0.87,2.41,1.74,3.62,2.61c-2.16,6.69-6.79,12.55-12.8,16.19c-2.92,1.77-6.72,2.78-10.1,1.92
				c-3.98-1.01-5.52-4.39-6.02-8.17c-0.36-2.73-0.19-5.5-0.57-8.23c-3.28,4.99-6.67,10.08-11.49,13.6
				c-3.71,2.71-8.58,4.37-12.92,2.9c-5.01-1.7-7.86-6.93-9.62-11.92c-3.39,4.28-7.04,8.61-11.99,10.92s-11.54,1.99-15.07-2.17
				c-4.88-5.76-2.56-16.12,0.31-22.27c2.32-4.96,4.8-9.85,7.3-14.96c-2.14-0.21-4.28-0.3-6.42-0.41c-1.68-0.09-4.88-0.93-6.24,0.21
				c-4.16,3.48-7.33,4.07-14.11,3.28c1.12,2.88,0.45,7.68,0.41,9.04c-0.33,11.52-8.98,23.28-19.79,27.33
				c-5.03,1.88-10.78,1.93-15.82,0.03c-5.67-2.15-8.05-6.19-11.32-10.88c-0.85,1.15-1.52,2.09-2.23,3
				c-3.47,4.43-7.43,8.12-13.28,9.12c-6.3,1.08-11.34-1.64-12.39-7.89c-0.85-5.04-0.82-10.39-0.2-15.49
				c2.4-19.71,7.91-38.6,16.11-56.67c1.98-4.37,4.83-10.4,9.36-12.6c11.98-5.84,8.07,16.59,6.71,22.01
				c-3.32,13.23-10.59,25.29-18.76,36.07c-3.01,3.98-4.48,8.72-4.82,13.66c-0.35,5.16-1.85,16.88,6.62,15.13
				c3.95-0.82,7.1-4.96,9.16-8.13c2.37-3.65,2.92-7.8,3.75-11.96c1.08-5.37,3.29-10.43,6.55-14.83c2.21-2.99,6.97-7.89,11.98-9.45
				c5.77-1.8,12.17-2.51,17.79,0.14C366.94,135.75,368.48,136.73,370.4,137.87z M431.83,167.15c0.19,4.44,2.34,11.4,8.08,10.52
				c3.42-0.52,6.22-3.84,8.08-6.53c4.03-5.81,7.15-12.48,8.51-19.45c0.93-4.78,1.19-14.42-5.65-15.01
				c-4.8-0.41-9.43,4.54-11.95,8.08C434.5,150.96,431.5,159.49,431.83,167.15z M313.56,146.83c-0.01,0.06-0.02,0.11-0.03,0.17
				c9.09-10.74,15.41-23.81,18.2-37.6c0.61-3.04,1.06-6.15,0.76-9.24c-0.1-1.03-0.34-2.15-1.15-2.79
				c-3.45-2.72-7.29,10.64-7.94,12.59C319.32,122.02,316.03,134.35,313.56,146.83z"/>
			<path class="st3" d="M219.01,166.65c3.58-1.94,6.68-3.82,11.07-2.59c-0.35-0.1-2.09,2.73-2.29,3.11
				c-1.08,2.08-2.07,4.22-2.78,6.46c-0.66,2.1-1.08,4.07-0.36,6.24c0.73,2.2,2.36,3.85,4.37,4.93c6.34,3.44,16.47,2.91,21.18-3.04
				c4.94-6.25,7.87-13.45,9.87-21.06c1.19-4.52,2.12-9.12,3.34-14.4c-5.17,0.36-9.78,0.68-14.36,1c0.33-3.03,2.61-5.24,6.54-5.91
				c1.87-0.32,3.81-0.54,5.68-0.38c2.47,0.22,3.14-0.95,3.73-3.09c1.64-5.97,3.28-11.95,5.42-17.77c2.17-5.89,5.18-11.17,8.09-16.7
				c-0.24,0.45-8.21-1.36-9.08-1.51c-3.18-0.53-6.37-1.03-9.58-1.34c-6.1-0.57-12.69-0.59-18.51,1.58
				c-7.11,2.65-11.66,9.85-9.08,17.39c1.85,5.42,7.1,9.15,12.81,9.2c0.95,0.01,1.91,0,3,0c-1.45,3.11-6.99,5.13-11.05,4.2
				c-4.97-1.15-7.94-4.41-9.36-9.19c-2.75-9.2,1.04-18.78,9.69-24.46c9.41-6.18,19.93-6.78,30.66-5.76
				c7.66,0.73,15.29,1.79,22.94,2.63c4.8,0.53,9.65,0.95,14.47,0.5c5.06-0.47,8.85-2.34,13.42-4.31c-0.04,0.78,0.11,1.9-0.19,2.9
				c-3.59,11.98-21.79,11.36-31.26,9.67c-3.23-0.58-4.49,1.55-5.31,4.29c-1.86,6.24-3.53,12.53-5.09,18.84
				c-0.95,3.85-1.46,7.81-2.17,11.76c8.02,0,15.64,0,23.22,0c-0.27,3.3-2.61,5.86-7.12,6.38c-3.96,0.45-7.99,0.27-11.99,0.26
				c-5.24-0.01-5.26-0.06-6.15,4.97c-1.52,8.52-3.78,16.75-8.3,24.28c-5.31,8.85-14.42,15.23-24.89,15.82
				c-5.22,0.3-11.97-0.72-16.3-3.92c-2.79-2.06-4.45-5.12-5.41-8.39c-0.49-1.68-0.81-3.4-1.07-5.12c-0.06-0.41-1.2-5.04-1.6-4.75
				C215.19,169.38,219.01,166.65,219.01,166.65z"/>
		</g>
	</g>
</g>
<g id="logo" class="st1">
	<g class="st2">
		<g>
			<path class="st4" d="M160.46,114.62c-0.13,0.09-0.19,0.24-0.16,0.39c0.05,0.28,0.06,0.38,0.11,0.44c0.24,0.31,0.5,0.62,0.77,0.91
				c3.6,3.93,6.7,8.19,8.54,13.25c3.1,8.52,2.82,16.63-2.92,24.07c-0.46,0.6-0.98,1.15-1.58,1.81c-0.23,0.25-0.04,0.66,0.3,0.64
				c0.13-0.01,0.25-0.02,0.37-0.04c11.99-2.1,21.97-13.74,22.45-25.93c0.34-8.6-2.31-16.35-6.19-23.83
				c-0.53-1.02-1.2-0.98-2.11-0.77c-5.02,1.19-9.8,2.99-14.26,5.57C163.91,112.22,162.16,113.49,160.46,114.62z M151.04,156.18
				c0.36,0.05,0.58-0.38,0.34-0.64c-0.03-0.03-0.05-0.06-0.08-0.08c-5.29-4.84-7.39-10.92-6.83-17.96
				c0.66-8.14,4.43-14.82,9.96-20.63c1.6-1.68,1.58-1.85-0.29-3.21c-5.38-3.9-11.35-6.42-17.81-7.91c-1.36-0.31-2.07-0.03-2.71,1.21
				c-2.26,4.37-4.11,8.9-5.04,13.74c-2.24,11.71,0.24,21.93,9.76,29.79C141.96,153.47,146.02,155.47,151.04,156.18z M147.07,139.41
				c0,0.85-0.1,1.72,0.02,2.55c0.83,6.25,3.66,11.14,9.54,13.96c1.39,0.67,2.59,0.47,3.86-0.23c4.93-2.72,7.5-7.09,8.27-12.45
				c1.45-10.16-2.81-18.22-9.69-25.17c-0.61-0.62-1.61-0.61-2.21,0.01C151.07,124,147.14,130.82,147.07,139.41z M112.98,159.7
				c4.63-8.31,3.14-25.58-2.72-31.2c-0.18-0.17-0.48-0.13-0.61,0.09c-4,7.14-5.69,15.86-3.63,23.87c0.58,2.26,1.48,4.43,2.67,6.44
				c0.15,0.25,0.44,0.53,0.68,0.37c0.15-0.1,0.16-0.32,0.15-0.5c0-2.98-0.12-5.95-0.28-8.92c-0.1-1.81-0.22-3.63-0.32-5.44
				c-0.06-1.06-0.17-2.71,0.91-3.34c1.06-0.62,1.66,1.13,1.74,1.9c0.16,1.55,0.09,3.16,0.13,4.72c0.1,3.91,0.14,7.93,0.56,11.86
				C112.3,159.93,112.8,160.03,112.98,159.7z M149.69,176.23c-3.37-8.77-18.23-19.36-24.6-17.52c-0.2,0.06-0.32,0.25-0.28,0.45
				c1.83,8.72,15.35,20.65,22.89,20.4c0.35-0.01,0.5-0.46,0.23-0.68c-0.04-0.03-0.07-0.06-0.11-0.09c-2.52-2.07-5.05-4.12-7.57-6.19
				c-1.26-1.04-2.52-2.07-3.77-3.12c-0.66-0.55-1.44-0.99-2-1.66c-0.5-0.6-1.28-2.09,0.04-2.3c0.42-0.07,0.96,0.05,1.3,0.31
				c2.14,1.6,4.15,3.36,6.21,5.05c2.3,1.89,4.6,3.77,7.06,5.77C149.39,176.91,149.83,176.6,149.69,176.23z M190.24,158.49
				c-9.54,0.72-23.85,11.03-24.65,17.68c-0.04,0.34,0.36,0.55,0.63,0.34c1.25-1.01,2.45-1.98,3.64-2.95
				c3.26-2.66,6.5-5.33,9.77-7.98c0.61-0.49,1.92-0.74,2.21,0.23c0.21,0.7-0.52,1.62-1.02,2.03c-4.39,3.61-8.83,7.15-13.26,10.71
				c-0.1,0.08-0.19,0.16-0.29,0.25c-0.29,0.26-0.06,0.74,0.32,0.67c10.17-1.9,19.73-10.41,23.05-20.47
				C190.73,158.73,190.51,158.47,190.24,158.49z M148.1,106.35c-0.13,0.18-0.08,0.43,0.1,0.55c3.15,2.08,6.14,4.1,9.2,5.99
				c0.37,0.23,1.28-0.13,1.79-0.44c1.88-1.16,3.69-2.45,5.55-3.64c0.92-0.59,1.89-1.11,2.95-1.7c0.2-0.11,0.26-0.37,0.13-0.56
				c-2.58-3.67-5.84-6.32-9.45-8.58c-0.28-0.18-0.92-0.07-1.24,0.14C153.72,100.37,150.59,102.95,148.1,106.35z M130,108.76
				c0.69-1.62,1.56-3.16,2.37-4.73c0.57-1.1,1.42-1.55,2.68-1.19c2.84,0.83,5.72,1.52,8.52,2.45c1.22,0.41,1.95,0.3,2.75-0.75
				c2.76-3.61,6.22-6.46,9.96-9c1.17-0.8,2.09-0.73,3.24,0.04c3.8,2.55,7.39,5.33,10.05,9.13c0.68,0.98,1.4,1.03,2.49,0.68
				c2.92-0.95,5.88-1.76,8.83-2.62c1.36-0.39,2.24,0.1,2.91,1.36c3.28,6.17,5.9,12.57,6.82,19.55c2.37,17.99-10.01,33.43-26.87,35.3
				c-0.83,0.09-1.67,0.11-2.68,0.17c-0.23,0.01-0.4,0.22-0.35,0.45c1.3,7.17,1.3,13.97-2.8,20.15c-0.15,0.23-0.03,0.53,0.23,0.59
				c2.33,0.51,2.76,0.19,3.61-2.01c5.3-13.72,15.74-20.67,29.89-22.72c2.3-0.33,2.79,0.34,2.06,2.57
				c-4.96,15.14-17.86,24.61-33.79,24.82c-0.46,0.01-0.91,0.05-1.36,0.01c-2.29-0.21-4.2,0.45-6.18,1.76
				c-3.48,2.3-7.64,3.5-13.58,3.24c-0.43-0.02-0.56,0.58-0.16,0.74c1.07,0.44,2.15,0.86,3.26,1.2c16.2,4.92,31.39,2.82,45.37-6.83
				c6.93-4.79,11.97-11.26,15.78-18.74c0.5-0.97,0.18-1.52-0.46-2.22c-5.02-5.46-6.58-11.81-4.63-18.97
				c0.23-0.85,0.79-1.92,1.49-2.24c0.46-0.21,1.6,0.64,2.16,1.19c2.35,2.27,3.47,4.7,4.62,7.11c0.06,0.12,0.14,0.24,0.2,0.37
				c0.16,0.35,0.68,0.27,0.73-0.11c0.66-5.43,0.13-10.48-0.92-15.52c-4.04-19.35-20.19-34.65-40.17-38.02
				c-0.58-0.1-1.36-0.33-1.78-0.79c-0.67-0.74,0.02-1.58,0.84-1.82c0.51-0.15,1.13,0.02,1.68,0.13c10.87,2.05,20.46,6.74,28.15,14.7
				c10.75,11.11,16.16,24.57,14.8,40.04c-1.82,20.69-13.04,35.19-32.05,42.81c-20.12,8.07-38.84,4.36-55.39-9.72
				c-4.74-4.03-8.36-8.94-11.35-14.38c-1.31-2.38-3.21-4.44-4.51-6.82c-5.51-10.11-4.82-20.32-0.18-30.52
				c0.64-1.39,1.39-2.74,2.16-4.06c1.03-1.75,1.92-1.82,3.01-0.14c3.25,5.01,5.72,10.36,6.63,16.32c1.17,7.72-0.41,14.95-4.13,21.73
				c-0.85,1.55-0.8,2.72,0.13,4.2c3.7,5.92,8.09,11.16,14.34,14.53c6.53,3.53,13.34,4.35,20.4,1.67c0.4-0.15,0.79-0.35,1.25-0.59
				c0.31-0.16,0.27-0.61-0.06-0.71c-0.25-0.08-0.45-0.14-0.66-0.17c-13.24-2.14-21.88-9.87-26.86-22.07
				c-0.26-0.63-0.48-1.28-0.71-1.92c-0.9-2.48-0.39-3.16,2.26-2.74c14.08,2.19,24.36,9.29,29.52,22.96
				c0.13,0.34,0.28,0.66,0.52,1.17c0.13,0.27,0.5,0.3,0.67,0.05c0.81-1.2,1.54-2.17,2.08-3.23c2.67-5.24,2.51-10.75,1.42-16.33
				c-0.25-1.25-1.19-1.19-2.11-1.18c-5.04,0.06-9.88-0.9-14.28-3.38c-7.12-4-12.83-9.96-15.1-17.95c-0.95-3.35-1.51-6.89-1.42-10.38
				c0.11-4.45,1.03-8.86,2.4-13.08c0.08-0.26,0.17-0.51,0.25-0.77c0.02-0.04,0.03-0.09,0.05-0.13L130,108.76z M205.02,152.59
				c-0.83-3.86-2.71-7.53-4.7-8.97c-0.26-0.19-0.62-0.08-0.73,0.22c-1.2,3.24-0.51,10.12,1.49,13.49c0.55,0.93,1.97,0.34,1.69-0.7
				c-0.27-1-0.57-2-0.89-2.99c-0.16-0.49-0.32-0.99-0.49-1.48c-0.14-0.42-0.35-0.9-0.28-1.37c0.08-0.52,0.74-0.66,1.21-0.48
				c0.42,0.16,0.49,0.53,0.67,0.92c0.2,0.42,0.32,0.88,0.45,1.33c0.04,0.13,0.08,0.26,0.11,0.39
				C203.83,153.91,205.23,153.55,205.02,152.59z"/>
		</g>
	</g>
</g>
</svg>
