<?xml version="1.0" encoding="utf-8"?>
<!-- Generator: Adobe Illustrator 25.4.1, SVG Export Plug-In . SVG Version: 6.00 Build 0)  -->
<svg version="1.1" id="Layer_1" xmlns="http://www.w3.org/2000/svg" xmlns:xlink="http://www.w3.org/1999/xlink" x="0px" y="0px"
	 viewBox="0 0 510.24 283.46" style="enable-background:new 0 0 510.24 283.46;" xml:space="preserve">
<style type="text/css">
	.st0{fill:#595E4F;}
</style>
<g>
	<g>
		<path class="st0" d="M263.31,139.76c-23.83,4.67-36.8,31.7-27.84,53.54c2.3,5.6,6.14,10.92,11.8,13.48
			c5.78,2.61,12.78,1.95,18.5-0.78c5.72-2.74,10.27-7.35,13.87-12.42c7.25-10.24,10.98-22.75,10.48-35.13
			c-0.21-5.2-1.32-10.71-5.08-14.46c-3.79-3.77-9.59-5.02-15.03-4.93C267.69,139.1,265.46,139.34,263.31,139.76z M290.92,134.72
			c10.17,6.01,26.26,14.29,24.97,0.51c-0.36-3.89-0.58-7.91,0.59-11.7c2.02-6.52,6.6-10.14,11.37-9.42
			c4.66,0.71,7.28,4.52,7.64,11.1c0.04,0.73,0.05,1.45,0.05,2.18c-0.01,9.52,9.84,9.49,16.71,7.96c2.44-0.54,14.17-4.79,15.98-2.22
			c2.89,4.09,0.54,7.69-1.24,11.62c-6.55,14.41-12.34,29.11-16.75,44.34c-1.98,6.83-2,19.39,6.51,21.94
			c8.94,2.68,20.45-9.66,24.18-16.54c3.81-7.03,4.51-15.25,6.4-23.02c2.84-11.69,8.56-22.67,16.51-31.7
			c7.34-8.34,17.13-15.23,28.19-16.22c11.07-0.99,23.19,5.38,26.16,16.09c3.11-8.87,12.85-14.91,22.18-13.75
			c-6.52,25.27-17.97,50.05-16.53,76.1c0.55,9.92,9.01,9.7,14.98,3.7c6.57-6.61,11.95-14.4,15.8-22.89
			c2.19,1.58,4.38,3.16,6.57,4.73c-3.92,12.15-12.33,22.79-23.25,29.4c-5.3,3.21-12.2,5.04-18.34,3.48
			c-7.23-1.84-10.02-7.97-10.93-14.84c-0.65-4.95-0.34-9.99-1.03-14.94c-5.96,9.05-12.11,18.31-20.87,24.7
			c-6.73,4.91-15.57,7.94-23.47,5.26c-9.1-3.09-14.27-12.59-17.48-21.64c-6.16,7.76-12.79,15.64-21.77,19.84
			c-8.98,4.19-20.97,3.61-27.37-3.95c-8.86-10.46-4.66-29.27,0.56-40.45c4.2-9.02,8.71-17.89,13.26-27.17
			c-3.88-0.37-7.78-0.55-11.67-0.75c-3.05-0.16-8.87-1.69-11.33,0.37c-7.55,6.31-13.32,7.4-25.63,5.96
			c2.03,5.23,0.81,13.95,0.74,16.42c-0.59,20.93-16.31,42.29-35.93,49.63c-9.14,3.42-19.58,3.51-28.73,0.05
			c-10.3-3.9-14.63-11.23-20.56-19.75c-1.55,2.09-2.76,3.8-4.05,5.44c-6.3,8.04-13.5,14.74-24.11,16.56
			c-11.44,1.96-20.59-2.97-22.5-14.33c-1.54-9.15-1.49-18.87-0.36-28.13c4.36-35.79,14.36-70.1,29.27-102.92
			c3.6-7.93,8.77-18.88,17-22.89c21.75-10.6,14.66,30.14,12.19,39.97c-6.03,24.03-19.24,45.93-34.07,65.51
			c-5.47,7.22-8.13,15.84-8.75,24.81c-0.64,9.37-3.36,30.65,12.03,27.47c7.18-1.49,12.9-9.01,16.64-14.77
			c4.3-6.62,5.3-14.17,6.82-21.71c1.96-9.75,5.97-18.95,11.89-26.94c4.02-5.43,12.65-14.32,21.76-17.16
			c10.48-3.26,22.11-4.55,32.31,0.25C284.64,130.86,287.43,132.66,290.92,134.72z M402.48,187.89c0.35,8.07,4.25,20.7,14.68,19.11
			c6.21-0.95,11.29-6.98,14.67-11.85c7.32-10.56,12.99-22.66,15.45-35.32c1.68-8.67,2.15-26.2-10.26-27.25
			c-8.71-0.74-17.13,8.25-21.7,14.67C407.32,158.49,401.88,173.98,402.48,187.89z M187.69,151c-0.02,0.1-0.04,0.2-0.06,0.3
			c16.5-19.51,27.99-43.24,33.05-68.29c1.12-5.52,1.93-11.17,1.39-16.77c-0.18-1.87-0.61-3.9-2.09-5.07
			c-6.27-4.95-13.23,19.32-14.43,22.87C198.16,105.94,192.19,128.32,187.69,151z"/>
		<path class="st0" d="M15.97,186.98c6.5-3.51,12.12-6.93,20.11-4.7c-0.64-0.18-3.79,4.96-4.15,5.65
			c-1.97,3.78-3.75,7.66-5.04,11.73c-1.21,3.81-1.96,7.4-0.66,11.33c1.33,4,4.29,6.98,7.94,8.96c11.52,6.24,29.91,5.29,38.46-5.53
			c8.97-11.35,14.29-24.43,17.93-38.24c2.17-8.21,3.86-16.56,6.06-26.15c-9.38,0.65-17.77,1.23-26.08,1.81
			c0.59-5.5,4.73-9.52,11.88-10.73c3.39-0.57,6.92-0.99,10.32-0.69c4.49,0.4,5.7-1.73,6.77-5.62c2.99-10.84,5.96-21.71,9.84-32.27
			c3.94-10.7,9.4-20.29,14.69-30.34c-0.43,0.81-14.91-2.47-16.49-2.74c-5.77-0.97-11.56-1.88-17.39-2.43
			c-11.08-1.04-23.05-1.08-33.62,2.86c-12.91,4.81-21.17,17.88-16.49,31.58c3.36,9.84,12.89,16.62,23.26,16.71
			c1.73,0.01,3.47,0,5.44,0c-2.64,5.65-12.69,9.32-20.07,7.62c-9.03-2.09-14.42-8.01-17.01-16.68c-4.99-16.72,1.89-34.1,17.6-44.43
			c17.09-11.23,36.2-12.31,55.68-10.46c13.92,1.32,27.77,3.24,41.67,4.77c8.71,0.96,17.52,1.72,26.28,0.91
			c9.2-0.85,16.06-4.24,24.37-7.83c-0.07,1.41,0.2,3.46-0.34,5.27c-6.52,21.76-39.58,20.62-56.77,17.56
			c-5.87-1.05-8.16,2.82-9.65,7.8c-3.38,11.32-6.4,22.75-9.25,34.22c-1.73,6.99-2.64,14.18-3.94,21.36c14.56,0,28.4,0,42.18,0
			c-0.5,5.99-4.73,10.65-12.93,11.58c-7.19,0.82-14.52,0.48-21.78,0.47c-9.52-0.02-9.55-0.11-11.17,9.03
			c-2.76,15.48-6.86,30.41-15.08,44.1c-9.65,16.07-26.18,27.65-45.2,28.73c-9.49,0.54-21.74-1.31-29.61-7.11
			c-5.06-3.74-8.09-9.3-9.83-15.24c-0.89-3.04-1.47-6.17-1.94-9.3c-0.11-0.74-2.17-9.16-2.91-8.63
			C9.05,191.94,15.97,186.98,15.97,186.98z"/>
	</g>
</g>
</svg>
