<svg xmlns="http://www.w3.org/2000/svg" xmlns:xlink="http://www.w3.org/1999/xlink" width="40" zoomAndPan="magnify" viewBox="0 0 30 30.000001" height="40" preserveAspectRatio="xMidYMid meet" version="1.0"><defs><clipPath id="133c199dce"><path d="M 28.40625 27.921875 L 29.515625 27.921875 L 29.515625 29 L 28.40625 29 Z M 28.40625 27.921875 " clip-rule="nonzero"/></clipPath></defs><g clip-path="url(#133c199dce)"><path fill="#8f8383" d="M 28.996094 28.1875 C 28.996094 28.191406 28.992188 28.191406 28.992188 28.191406 C 28.996094 28.195312 28.996094 28.195312 28.996094 28.199219 C 28.996094 28.199219 29 28.203125 29.003906 28.207031 C 29.035156 28.242188 29.066406 28.285156 29.082031 28.332031 C 29.113281 28.414062 29.109375 28.488281 29.054688 28.5625 C 29.050781 28.566406 29.046875 28.570312 29.039062 28.578125 C 29.039062 28.582031 29.039062 28.585938 29.042969 28.585938 C 29.042969 28.585938 29.046875 28.585938 29.046875 28.582031 C 29.160156 28.5625 29.257812 28.453125 29.261719 28.335938 C 29.265625 28.253906 29.238281 28.183594 29.203125 28.109375 C 29.195312 28.101562 29.191406 28.101562 29.179688 28.101562 C 29.132812 28.113281 29.089844 28.132812 29.046875 28.15625 C 29.027344 28.167969 29.011719 28.179688 28.996094 28.1875 Z M 28.90625 28.585938 C 28.910156 28.585938 28.910156 28.582031 28.910156 28.578125 C 28.859375 28.53125 28.839844 28.472656 28.84375 28.40625 C 28.851562 28.328125 28.886719 28.265625 28.9375 28.210938 C 28.953125 28.195312 28.953125 28.191406 28.933594 28.179688 C 28.882812 28.144531 28.828125 28.121094 28.765625 28.105469 C 28.753906 28.101562 28.746094 28.105469 28.742188 28.117188 C 28.71875 28.15625 28.703125 28.199219 28.691406 28.246094 C 28.671875 28.359375 28.695312 28.457031 28.785156 28.53125 C 28.820312 28.558594 28.859375 28.578125 28.90625 28.585938 Z M 28.867188 28.425781 C 28.867188 28.433594 28.867188 28.441406 28.867188 28.449219 C 28.875 28.507812 28.902344 28.554688 28.960938 28.582031 C 28.972656 28.589844 28.984375 28.585938 28.996094 28.578125 C 29.042969 28.554688 29.066406 28.511719 29.074219 28.460938 C 29.089844 28.363281 29.046875 28.289062 28.980469 28.222656 C 28.976562 28.214844 28.96875 28.214844 28.960938 28.222656 C 28.90625 28.277344 28.867188 28.34375 28.867188 28.425781 Z M 28.542969 28.617188 C 28.589844 28.539062 28.574219 28.375 28.519531 28.320312 C 28.515625 28.320312 28.511719 28.320312 28.511719 28.320312 C 28.472656 28.390625 28.457031 28.472656 28.476562 28.550781 C 28.484375 28.570312 28.492188 28.589844 28.503906 28.609375 C 28.503906 28.613281 28.507812 28.617188 28.511719 28.613281 C 28.511719 28.613281 28.511719 28.609375 28.511719 28.609375 C 28.511719 28.582031 28.511719 28.550781 28.507812 28.523438 C 28.507812 28.507812 28.507812 28.488281 28.503906 28.472656 C 28.503906 28.460938 28.503906 28.445312 28.515625 28.441406 C 28.523438 28.433594 28.53125 28.453125 28.53125 28.460938 C 28.53125 28.472656 28.53125 28.488281 28.53125 28.503906 C 28.53125 28.542969 28.535156 28.578125 28.539062 28.617188 C 28.539062 28.621094 28.542969 28.621094 28.542969 28.617188 Z M 28.894531 28.773438 C 28.859375 28.691406 28.71875 28.589844 28.660156 28.609375 C 28.65625 28.609375 28.65625 28.609375 28.65625 28.613281 C 28.675781 28.695312 28.800781 28.808594 28.875 28.808594 C 28.878906 28.808594 28.878906 28.800781 28.875 28.800781 C 28.851562 28.78125 28.828125 28.761719 28.804688 28.742188 C 28.792969 28.730469 28.78125 28.722656 28.765625 28.710938 C 28.761719 28.707031 28.753906 28.703125 28.75 28.695312 C 28.742188 28.691406 28.734375 28.675781 28.75 28.671875 C 28.753906 28.671875 28.757812 28.675781 28.761719 28.675781 C 28.78125 28.691406 28.800781 28.707031 28.820312 28.722656 C 28.84375 28.742188 28.863281 28.761719 28.886719 28.78125 C 28.890625 28.78125 28.894531 28.777344 28.894531 28.773438 Z M 29.277344 28.605469 C 29.1875 28.613281 29.050781 28.710938 29.042969 28.773438 C 29.042969 28.777344 29.046875 28.78125 29.050781 28.777344 C 29.0625 28.769531 29.074219 28.757812 29.085938 28.75 C 29.117188 28.722656 29.148438 28.699219 29.175781 28.675781 C 29.183594 28.667969 29.195312 28.667969 29.199219 28.675781 C 29.199219 28.683594 29.195312 28.691406 29.1875 28.695312 C 29.148438 28.730469 29.105469 28.761719 29.0625 28.796875 C 29.0625 28.796875 29.0625 28.800781 29.058594 28.800781 C 29.058594 28.800781 29.058594 28.808594 29.0625 28.804688 C 29.160156 28.789062 29.25 28.707031 29.28125 28.613281 C 29.285156 28.609375 29.28125 28.605469 29.277344 28.605469 Z M 28.878906 28.109375 C 28.875 28.113281 28.878906 28.113281 28.878906 28.117188 C 28.910156 28.136719 28.9375 28.15625 28.964844 28.171875 C 28.96875 28.175781 28.980469 28.171875 28.984375 28.167969 C 29 28.15625 29.019531 28.144531 29.035156 28.132812 C 29.046875 28.128906 29.054688 28.125 29.0625 28.117188 C 29.066406 28.117188 29.066406 28.113281 29.066406 28.113281 C 29.039062 28.078125 29.011719 28.050781 28.976562 28.03125 C 28.972656 28.03125 28.964844 28.03125 28.964844 28.03125 C 28.929688 28.054688 28.902344 28.078125 28.878906 28.109375 Z M 28.707031 28.132812 C 28.710938 28.117188 28.722656 28.105469 28.726562 28.089844 C 28.734375 28.078125 28.742188 28.074219 28.753906 28.078125 C 28.78125 28.085938 28.808594 28.09375 28.835938 28.101562 C 28.847656 28.105469 28.851562 28.105469 28.859375 28.09375 C 28.886719 28.058594 28.921875 28.03125 28.957031 28.007812 C 28.96875 28 28.976562 28 28.988281 28.007812 C 29.023438 28.03125 29.058594 28.058594 29.082031 28.09375 C 29.089844 28.105469 29.09375 28.105469 29.105469 28.101562 C 29.132812 28.09375 29.160156 28.085938 29.191406 28.078125 C 29.203125 28.074219 29.210938 28.078125 29.21875 28.089844 C 29.25 28.148438 29.273438 28.210938 29.28125 28.277344 C 29.304688 28.445312 29.1875 28.59375 29.027344 28.613281 C 29.019531 28.613281 29.011719 28.613281 29 28.613281 C 29 28.613281 28.996094 28.613281 28.996094 28.617188 C 29.011719 28.683594 29.011719 28.75 28.972656 28.808594 C 28.96875 28.8125 28.972656 28.8125 28.972656 28.816406 C 28.996094 28.820312 29 28.816406 29.007812 28.796875 C 29.058594 28.664062 29.15625 28.597656 29.292969 28.578125 C 29.3125 28.578125 29.320312 28.582031 29.3125 28.605469 C 29.265625 28.746094 29.140625 28.839844 28.992188 28.839844 C 28.984375 28.839844 28.980469 28.839844 28.976562 28.839844 C 28.957031 28.839844 28.9375 28.84375 28.917969 28.855469 C 28.886719 28.878906 28.847656 28.890625 28.789062 28.886719 C 28.785156 28.886719 28.785156 28.894531 28.789062 28.894531 C 28.796875 28.898438 28.808594 28.902344 28.820312 28.90625 C 28.972656 28.953125 29.117188 28.933594 29.25 28.839844 C 29.316406 28.796875 29.363281 28.734375 29.398438 28.664062 C 29.40625 28.652344 29.402344 28.648438 29.394531 28.640625 C 29.347656 28.589844 29.332031 28.53125 29.351562 28.460938 C 29.355469 28.453125 29.359375 28.441406 29.367188 28.441406 C 29.371094 28.4375 29.382812 28.445312 29.386719 28.453125 C 29.410156 28.472656 29.417969 28.496094 29.429688 28.519531 C 29.429688 28.519531 29.433594 28.519531 29.433594 28.523438 C 29.433594 28.527344 29.4375 28.523438 29.4375 28.519531 C 29.445312 28.46875 29.441406 28.421875 29.429688 28.375 C 29.390625 28.191406 29.238281 28.042969 29.046875 28.011719 C 29.042969 28.011719 29.035156 28.007812 29.03125 28.003906 C 29.023438 27.996094 29.03125 27.988281 29.039062 27.988281 C 29.042969 27.984375 29.050781 27.988281 29.054688 27.988281 C 29.160156 28.007812 29.25 28.050781 29.324219 28.128906 C 29.425781 28.234375 29.476562 28.363281 29.464844 28.507812 C 29.445312 28.707031 29.339844 28.84375 29.160156 28.917969 C 28.96875 28.992188 28.789062 28.957031 28.632812 28.824219 C 28.585938 28.785156 28.554688 28.738281 28.523438 28.6875 C 28.511719 28.664062 28.492188 28.644531 28.480469 28.621094 C 28.429688 28.527344 28.4375 28.429688 28.480469 28.332031 C 28.484375 28.320312 28.492188 28.304688 28.5 28.292969 C 28.511719 28.277344 28.519531 28.277344 28.527344 28.292969 C 28.558594 28.339844 28.582031 28.390625 28.59375 28.445312 C 28.601562 28.519531 28.589844 28.589844 28.554688 28.652344 C 28.542969 28.667969 28.546875 28.679688 28.554688 28.695312 C 28.589844 28.75 28.632812 28.800781 28.691406 28.832031 C 28.753906 28.867188 28.816406 28.875 28.882812 28.847656 C 28.886719 28.847656 28.890625 28.84375 28.894531 28.84375 C 28.898438 28.839844 28.898438 28.835938 28.894531 28.835938 C 28.894531 28.835938 28.890625 28.835938 28.890625 28.832031 C 28.761719 28.8125 28.679688 28.738281 28.632812 28.625 C 28.632812 28.617188 28.628906 28.613281 28.628906 28.605469 C 28.617188 28.582031 28.625 28.574219 28.648438 28.578125 C 28.78125 28.601562 28.878906 28.667969 28.929688 28.796875 C 28.929688 28.800781 28.933594 28.804688 28.933594 28.808594 C 28.9375 28.8125 28.9375 28.8125 28.941406 28.808594 C 28.949219 28.796875 28.957031 28.789062 28.960938 28.777344 C 28.984375 28.730469 28.984375 28.675781 28.972656 28.625 C 28.972656 28.613281 28.960938 28.613281 28.953125 28.613281 C 28.90625 28.613281 28.859375 28.605469 28.816406 28.582031 C 28.75 28.542969 28.695312 28.484375 28.675781 28.410156 C 28.664062 28.378906 28.660156 28.34375 28.660156 28.3125 C 28.660156 28.269531 28.671875 28.226562 28.683594 28.1875 C 28.683594 28.183594 28.683594 28.183594 28.6875 28.179688 Z M 29.417969 28.550781 C 29.410156 28.515625 29.394531 28.480469 29.375 28.464844 C 29.371094 28.464844 29.367188 28.464844 29.367188 28.46875 C 29.355469 28.5 29.363281 28.5625 29.382812 28.59375 C 29.386719 28.605469 29.402344 28.597656 29.398438 28.589844 C 29.394531 28.578125 29.390625 28.570312 29.390625 28.558594 C 29.386719 28.554688 29.386719 28.550781 29.382812 28.546875 C 29.382812 28.542969 29.382812 28.539062 29.382812 28.535156 C 29.382812 28.527344 29.390625 28.527344 29.394531 28.527344 C 29.398438 28.53125 29.398438 28.535156 29.398438 28.539062 C 29.402344 28.542969 29.402344 28.546875 29.402344 28.550781 C 29.40625 28.550781 29.40625 28.554688 29.40625 28.554688 C 29.40625 28.5625 29.421875 28.558594 29.417969 28.550781 Z M 29.417969 28.550781 " fill-opacity="1" fill-rule="nonzero"/></g><path fill="#ffffff" d="M 15.367188 6.757812 C 15.335938 6.777344 15.320312 6.816406 15.328125 6.851562 C 15.339844 6.917969 15.339844 6.941406 15.351562 6.957031 C 15.410156 7.03125 15.472656 7.105469 15.535156 7.175781 C 16.402344 8.117188 17.144531 9.136719 17.585938 10.351562 C 18.328125 12.394531 18.261719 14.339844 16.882812 16.125 C 16.773438 16.269531 16.648438 16.398438 16.503906 16.558594 C 16.449219 16.617188 16.496094 16.714844 16.578125 16.710938 C 16.609375 16.710938 16.636719 16.707031 16.664062 16.703125 C 19.539062 16.199219 21.933594 13.410156 22.046875 10.488281 C 22.128906 8.421875 21.492188 6.566406 20.566406 4.773438 C 20.4375 4.527344 20.277344 4.535156 20.058594 4.589844 C 18.855469 4.875 17.710938 5.304688 16.640625 5.925781 C 16.191406 6.183594 15.773438 6.488281 15.367188 6.757812 Z M 13.105469 16.722656 C 13.191406 16.734375 13.246094 16.632812 13.1875 16.566406 C 13.179688 16.5625 13.175781 16.554688 13.167969 16.546875 C 11.898438 15.386719 11.394531 13.929688 11.53125 12.242188 C 11.6875 10.289062 12.59375 8.6875 13.921875 7.296875 C 14.304688 6.890625 14.300781 6.851562 13.851562 6.523438 C 12.5625 5.589844 11.128906 4.984375 9.582031 4.628906 C 9.253906 4.554688 9.085938 4.621094 8.929688 4.917969 C 8.390625 5.96875 7.945312 7.054688 7.722656 8.210938 C 7.1875 11.019531 7.78125 13.46875 10.0625 15.355469 C 10.929688 16.074219 11.902344 16.550781 13.105469 16.722656 Z M 12.15625 12.699219 C 12.15625 12.902344 12.132812 13.113281 12.160156 13.3125 C 12.359375 14.8125 13.035156 15.984375 14.445312 16.660156 C 14.78125 16.820312 15.066406 16.773438 15.375 16.605469 C 16.554688 15.953125 17.171875 14.902344 17.355469 13.617188 C 17.703125 11.183594 16.679688 9.25 15.03125 7.582031 C 14.886719 7.433594 14.644531 7.433594 14.5 7.582031 C 13.113281 9.003906 12.171875 10.640625 12.15625 12.699219 Z M 3.980469 17.566406 C 5.09375 15.574219 4.734375 11.433594 3.328125 10.085938 C 3.285156 10.042969 3.210938 10.054688 3.183594 10.105469 C 2.222656 11.816406 1.820312 13.910156 2.316406 15.832031 C 2.453125 16.371094 2.671875 16.894531 2.957031 17.375 C 2.992188 17.433594 3.058594 17.5 3.117188 17.464844 C 3.15625 17.4375 3.15625 17.386719 3.15625 17.34375 C 3.15625 16.628906 3.125 15.914062 3.089844 15.203125 C 3.066406 14.769531 3.035156 14.332031 3.011719 13.898438 C 2.996094 13.644531 2.96875 13.25 3.230469 13.097656 C 3.484375 12.949219 3.628906 13.371094 3.644531 13.554688 C 3.683594 13.925781 3.667969 14.3125 3.675781 14.6875 C 3.703125 15.625 3.710938 16.589844 3.808594 17.53125 C 3.816406 17.621094 3.9375 17.644531 3.980469 17.566406 Z M 12.785156 21.53125 C 11.976562 19.425781 8.410156 16.886719 6.882812 17.332031 C 6.835938 17.34375 6.808594 17.390625 6.816406 17.4375 C 7.253906 19.527344 10.496094 22.386719 12.308594 22.332031 C 12.390625 22.328125 12.425781 22.21875 12.363281 22.167969 C 12.351562 22.160156 12.34375 22.152344 12.335938 22.144531 C 11.730469 21.648438 11.125 21.15625 10.519531 20.660156 C 10.21875 20.410156 9.917969 20.164062 9.617188 19.910156 C 9.457031 19.78125 9.269531 19.675781 9.136719 19.515625 C 9.015625 19.371094 8.828125 19.011719 9.144531 18.964844 C 9.246094 18.949219 9.375 18.976562 9.457031 19.039062 C 9.96875 19.421875 10.453125 19.84375 10.945312 20.25 C 11.496094 20.703125 12.050781 21.152344 12.640625 21.632812 C 12.710938 21.691406 12.816406 21.617188 12.785156 21.53125 Z M 22.507812 17.277344 C 20.21875 17.449219 16.785156 19.921875 16.59375 21.515625 C 16.585938 21.597656 16.679688 21.648438 16.746094 21.597656 C 17.046875 21.355469 17.332031 21.121094 17.617188 20.886719 C 18.398438 20.25 19.175781 19.609375 19.960938 18.976562 C 20.105469 18.855469 20.417969 18.796875 20.488281 19.03125 C 20.539062 19.199219 20.367188 19.417969 20.246094 19.515625 C 19.191406 20.382812 18.128906 21.230469 17.066406 22.085938 C 17.042969 22.105469 17.019531 22.125 16.996094 22.144531 C 16.929688 22.207031 16.984375 22.324219 17.074219 22.304688 C 19.511719 21.851562 21.804688 19.808594 22.601562 17.398438 C 22.625 17.332031 22.574219 17.269531 22.507812 17.277344 Z M 12.402344 4.773438 C 12.371094 4.816406 12.382812 4.875 12.425781 4.90625 C 13.183594 5.40625 13.898438 5.886719 14.632812 6.34375 C 14.722656 6.398438 14.9375 6.3125 15.0625 6.234375 C 15.511719 5.957031 15.945312 5.648438 16.390625 5.363281 C 16.613281 5.222656 16.84375 5.097656 17.097656 4.953125 C 17.148438 4.925781 17.160156 4.863281 17.128906 4.820312 C 16.511719 3.941406 15.730469 3.304688 14.863281 2.761719 C 14.796875 2.71875 14.640625 2.746094 14.566406 2.796875 C 13.75 3.339844 13 3.957031 12.402344 4.773438 Z M 8.0625 5.351562 C 8.226562 4.964844 8.4375 4.59375 8.632812 4.21875 C 8.769531 3.957031 8.972656 3.847656 9.273438 3.933594 C 9.953125 4.132812 10.644531 4.300781 11.316406 4.523438 C 11.609375 4.621094 11.785156 4.59375 11.976562 4.34375 C 12.636719 3.476562 13.46875 2.792969 14.363281 2.183594 C 14.644531 1.992188 14.867188 2.007812 15.140625 2.195312 C 16.054688 2.804688 16.914062 3.472656 17.550781 4.382812 C 17.714844 4.617188 17.886719 4.628906 18.148438 4.546875 C 18.847656 4.316406 19.558594 4.125 20.261719 3.917969 C 20.589844 3.824219 20.800781 3.941406 20.960938 4.246094 C 21.75 5.726562 22.375 7.257812 22.597656 8.933594 C 23.164062 13.246094 20.199219 16.949219 16.152344 17.398438 C 15.953125 17.421875 15.753906 17.425781 15.511719 17.441406 C 15.457031 17.441406 15.414062 17.492188 15.425781 17.546875 C 15.738281 19.265625 15.738281 20.898438 14.753906 22.378906 C 14.71875 22.433594 14.746094 22.507812 14.808594 22.523438 C 15.367188 22.644531 15.472656 22.566406 15.675781 22.039062 C 16.945312 18.75 19.449219 17.082031 22.84375 16.589844 C 23.394531 16.511719 23.511719 16.671875 23.335938 17.207031 C 22.148438 20.835938 19.054688 23.109375 15.234375 23.160156 C 15.125 23.160156 15.015625 23.171875 14.90625 23.160156 C 14.359375 23.109375 13.898438 23.269531 13.425781 23.582031 C 12.589844 24.136719 11.59375 24.421875 10.167969 24.359375 C 10.066406 24.355469 10.035156 24.5 10.128906 24.539062 C 10.386719 24.640625 10.644531 24.742188 10.910156 24.824219 C 14.796875 26.003906 18.4375 25.5 21.789062 23.1875 C 23.453125 22.039062 24.660156 20.484375 25.574219 18.695312 C 25.695312 18.460938 25.617188 18.328125 25.464844 18.160156 C 24.257812 16.851562 23.886719 15.328125 24.355469 13.613281 C 24.410156 13.40625 24.542969 13.152344 24.710938 13.074219 C 24.820312 13.023438 25.09375 13.226562 25.230469 13.359375 C 25.792969 13.902344 26.0625 14.488281 26.335938 15.0625 C 26.351562 15.09375 26.371094 15.121094 26.382812 15.152344 C 26.421875 15.238281 26.546875 15.21875 26.558594 15.125 C 26.71875 13.824219 26.589844 12.609375 26.335938 11.40625 C 25.371094 6.761719 21.496094 3.097656 16.703125 2.289062 C 16.566406 2.265625 16.378906 2.207031 16.277344 2.097656 C 16.117188 1.921875 16.285156 1.71875 16.480469 1.664062 C 16.601562 1.628906 16.75 1.667969 16.882812 1.695312 C 19.488281 2.1875 21.789062 3.308594 23.632812 5.21875 C 26.210938 7.882812 27.507812 11.109375 27.179688 14.820312 C 26.746094 19.78125 24.054688 23.257812 19.496094 25.085938 C 14.671875 27.019531 10.183594 26.128906 6.210938 22.753906 C 5.078125 21.789062 4.210938 20.609375 3.488281 19.308594 C 3.175781 18.734375 2.722656 18.242188 2.410156 17.671875 C 1.085938 15.246094 1.253906 12.796875 2.367188 10.351562 C 2.519531 10.019531 2.699219 9.695312 2.886719 9.378906 C 3.132812 8.957031 3.347656 8.941406 3.609375 9.34375 C 4.386719 10.546875 4.980469 11.828125 5.199219 13.257812 C 5.476562 15.109375 5.097656 16.84375 4.207031 18.46875 C 4.003906 18.839844 4.015625 19.117188 4.238281 19.476562 C 5.125 20.894531 6.179688 22.152344 7.675781 22.960938 C 9.242188 23.804688 10.875 24 12.566406 23.359375 C 12.664062 23.324219 12.753906 23.277344 12.867188 23.21875 C 12.941406 23.179688 12.929688 23.074219 12.851562 23.046875 C 12.792969 23.03125 12.742188 23.015625 12.691406 23.007812 C 9.515625 22.496094 7.445312 20.640625 6.253906 17.714844 C 6.191406 17.566406 6.136719 17.410156 6.082031 17.253906 C 5.867188 16.660156 5.988281 16.5 6.621094 16.597656 C 10 17.121094 12.464844 18.824219 13.703125 22.105469 C 13.730469 22.183594 13.769531 22.261719 13.828125 22.386719 C 13.855469 22.449219 13.945312 22.457031 13.984375 22.398438 C 14.179688 22.109375 14.355469 21.878906 14.484375 21.625 C 15.125 20.367188 15.085938 19.046875 14.824219 17.707031 C 14.765625 17.40625 14.539062 17.421875 14.316406 17.425781 C 13.109375 17.4375 11.949219 17.207031 10.894531 16.613281 C 9.183594 15.652344 7.816406 14.226562 7.273438 12.308594 C 7.042969 11.507812 6.910156 10.65625 6.929688 9.820312 C 6.957031 8.753906 7.179688 7.695312 7.507812 6.683594 C 7.527344 6.621094 7.546875 6.5625 7.566406 6.5 C 7.570312 6.488281 7.574219 6.476562 7.578125 6.46875 Z M 26.050781 15.859375 C 25.855469 14.933594 25.402344 14.054688 24.925781 13.710938 C 24.863281 13.664062 24.777344 13.691406 24.75 13.761719 C 24.460938 14.539062 24.625 16.1875 25.109375 17 C 25.238281 17.222656 25.578125 17.078125 25.511719 16.828125 C 25.445312 16.589844 25.375 16.351562 25.296875 16.113281 C 25.261719 15.996094 25.222656 15.875 25.179688 15.757812 C 25.148438 15.660156 25.097656 15.542969 25.113281 15.429688 C 25.132812 15.308594 25.292969 15.273438 25.40625 15.316406 C 25.503906 15.355469 25.519531 15.445312 25.566406 15.539062 C 25.613281 15.640625 25.640625 15.75 25.671875 15.855469 C 25.683594 15.886719 25.691406 15.917969 25.699219 15.949219 C 25.765625 16.175781 26.101562 16.089844 26.050781 15.859375 Z M 26.050781 15.859375 " fill-opacity="1" fill-rule="nonzero"/></svg>