<?xml version="1.0" encoding="utf-8"?>
<!-- Generator: Adobe Illustrator 25.4.1, SVG Export Plug-In . SVG Version: 6.00 Build 0)  -->
<svg version="1.1" xmlns="http://www.w3.org/2000/svg" xmlns:xlink="http://www.w3.org/1999/xlink" x="0px" y="0px"
	 viewBox="0 0 425.2 425.2" style="enable-background:new 0 0 425.2 425.2;" xml:space="preserve">
<style type="text/css">
	.st0{fill:#595E4F;}
	.st1{display:none;}
	.st2{display:inline;}
</style>
<g id="Layer_3_copy">
	<g>
		<g>
			<path class="st0" d="M228.13,103.58c-0.47,0.31-0.7,0.88-0.6,1.44c0.19,1.02,0.21,1.38,0.39,1.61c0.89,1.15,1.83,2.27,2.82,3.35
				c13.24,14.45,24.63,30.09,31.4,48.72c11.38,31.31,10.36,61.12-10.75,88.46c-1.7,2.2-3.61,4.23-5.81,6.64
				c-0.85,0.93-0.16,2.42,1.1,2.37c0.49-0.02,0.93-0.06,1.35-0.13c44.07-7.73,80.74-50.49,82.52-95.3
				c1.26-31.62-8.5-60.1-22.74-87.58c-1.94-3.75-4.43-3.62-7.75-2.83c-18.44,4.37-36.01,11-52.41,20.48
				C240.79,94.76,234.35,99.43,228.13,103.58z M193.49,256.33c1.32,0.19,2.15-1.4,1.24-2.37c-0.1-0.11-0.2-0.2-0.3-0.3
				c-19.45-17.79-27.17-40.15-25.09-66.02c2.41-29.92,16.29-54.47,36.62-75.82c5.89-6.19,5.81-6.82-1.06-11.8
				c-19.76-14.35-41.72-23.61-65.46-29.08c-5-1.15-7.61-0.11-9.97,4.46c-8.29,16.08-15.11,32.71-18.51,50.49
				c-8.23,43.03,0.9,80.59,35.87,109.51C160.12,246.38,175.04,253.71,193.49,256.33z M178.89,194.67c0,3.13-0.35,6.31,0.06,9.39
				c3.07,22.97,13.45,40.93,35.08,51.31c5.12,2.45,9.52,1.72,14.2-0.86c18.11-9.98,27.57-26.08,30.38-45.76
				c5.33-37.34-10.33-66.98-35.62-92.53c-2.24-2.26-5.92-2.25-8.14,0.03C193.6,138.03,179.15,163.1,178.89,194.67z M53.61,269.27
				c17.04-30.54,11.54-94.01-10-114.68c-0.67-0.64-1.78-0.49-2.23,0.32c-14.72,26.24-20.9,58.29-13.32,87.74
				c2.14,8.3,5.45,16.3,9.83,23.67c0.54,0.92,1.6,1.95,2.49,1.36c0.56-0.38,0.59-1.17,0.57-1.85c0-10.94-0.46-21.87-1.03-32.79
				c-0.35-6.67-0.8-13.33-1.18-20c-0.22-3.9-0.63-9.95,3.34-12.26c3.91-2.28,6.1,4.16,6.38,7c0.57,5.69,0.32,11.63,0.48,17.35
				c0.38,14.39,0.52,29.15,2.05,43.6C51.11,270.12,52.93,270.48,53.61,269.27z M188.53,330.03c-12.39-32.25-67.01-71.17-90.42-64.38
				c-0.72,0.21-1.19,0.91-1.03,1.64c6.72,32.04,56.41,75.89,84.15,75c1.3-0.04,1.84-1.69,0.84-2.51c-0.14-0.11-0.27-0.22-0.41-0.33
				c-9.27-7.59-18.57-15.16-27.83-22.77c-4.63-3.8-9.25-7.62-13.85-11.46c-2.43-2.03-5.3-3.65-7.36-6.1
				c-1.86-2.2-4.69-7.68,0.14-8.44c1.55-0.24,3.52,0.18,4.79,1.13c7.85,5.87,15.24,12.35,22.82,18.58
				c8.45,6.94,16.92,13.85,25.95,21.22C187.42,332.52,189.04,331.37,188.53,330.03z M337.57,264.81
				c-35.07,2.64-87.68,40.55-90.61,64.99c-0.15,1.25,1.32,2.04,2.3,1.24c4.6-3.72,8.99-7.28,13.37-10.86
				c11.97-9.77,23.89-19.61,35.91-29.32c2.25-1.81,7.04-2.73,8.12,0.85c0.78,2.58-1.91,5.94-3.75,7.46
				c-16.14,13.26-32.47,26.27-48.73,39.38c-0.36,0.29-0.7,0.58-1.06,0.91c-1.06,0.95-0.21,2.71,1.19,2.45
				c37.37-6.97,72.51-38.27,84.73-75.25C339.36,265.69,338.58,264.73,337.57,264.81z M182.69,73.17c-0.48,0.65-0.3,1.58,0.37,2.02
				c11.58,7.65,22.56,15.06,33.81,22.02c1.37,0.85,4.69-0.46,6.58-1.63c6.91-4.28,13.55-9,20.39-13.38
				c3.39-2.17,6.96-4.07,10.85-6.26c0.73-0.41,0.95-1.37,0.47-2.05c-9.5-13.49-21.47-23.24-34.74-31.55
				c-1.04-0.65-3.4-0.26-4.56,0.51C203.34,51.18,191.86,60.66,182.69,73.17z M116.17,82.04c2.53-5.95,5.74-11.62,8.73-17.37
				c2.09-4.04,5.21-5.71,9.84-4.36c10.43,3.03,21.01,5.59,31.31,9.01c4.5,1.49,7.17,1.12,10.12-2.75
				c10.13-13.26,22.85-23.73,36.59-33.08c4.31-2.93,7.69-2.69,11.92,0.15c13.98,9.38,27.15,19.6,36.93,33.54
				c2.51,3.59,5.15,3.79,9.14,2.49c10.72-3.49,21.61-6.47,32.44-9.61c4.98-1.44,8.25,0.37,10.71,5
				c12.05,22.69,21.68,46.19,25.06,71.87c8.7,66.14-36.78,122.89-98.76,129.77c-3.06,0.34-6.15,0.42-9.86,0.62
				c-0.85,0.04-1.46,0.83-1.3,1.66c4.78,26.36,4.76,51.35-10.31,74.08c-0.55,0.83-0.12,1.95,0.86,2.17
				c8.55,1.86,10.15,0.7,13.28-7.4c19.46-50.43,57.85-75.97,109.85-83.52c8.46-1.23,10.27,1.26,7.59,9.45
				c-18.24,55.65-65.65,90.47-124.2,91.22c-1.67,0.02-3.36,0.19-5.02,0.04c-8.43-0.78-15.44,1.67-22.71,6.47
				c-12.8,8.47-28.07,12.88-49.93,11.92c-1.58-0.07-2.06,2.12-0.59,2.71c3.95,1.6,7.91,3.16,11.97,4.4
				c59.54,18.1,115.38,10.36,166.77-25.1c25.49-17.59,44-41.4,58.01-68.87c1.82-3.57,0.66-5.59-1.71-8.17
				c-18.47-20.08-24.19-43.42-17.01-69.73c0.86-3.14,2.89-7.05,5.46-8.24c1.69-0.78,5.88,2.36,7.96,4.37
				c8.62,8.34,12.77,17.29,16.97,26.12c0.22,0.46,0.5,0.88,0.72,1.37c0.58,1.29,2.52,0.98,2.69-0.42
				c2.43-19.96,0.47-38.54-3.39-57.04c-14.84-71.14-74.22-127.34-147.66-139.73c-2.13-0.36-5-1.22-6.53-2.92
				c-2.45-2.73,0.07-5.82,3.07-6.68c1.86-0.54,4.14,0.09,6.18,0.48c39.95,7.55,75.19,24.78,103.47,54.01
				c39.52,40.85,59.39,90.3,54.4,147.18c-6.67,76.06-47.94,129.36-117.81,157.37c-73.96,29.65-142.75,16.01-203.61-35.72
				c-17.41-14.8-30.71-32.88-41.73-52.86c-4.82-8.75-11.78-16.31-16.56-25.08c-20.27-37.16-17.71-74.7-0.65-112.17
				c2.33-5.13,5.09-10.08,7.96-14.94c3.8-6.44,7.07-6.7,11.07-0.53c11.95,18.42,21.03,38.08,24.35,60
				c4.3,28.37-1.5,54.96-15.17,79.86c-3.14,5.71-2.95,9.98,0.47,15.45c13.61,21.77,29.73,41.01,52.69,53.4
				c24.02,12.96,49.02,15.98,74.97,6.14c1.48-0.56,2.89-1.28,4.61-2.17c1.12-0.58,0.98-2.23-0.23-2.61
				c-0.91-0.28-1.67-0.5-2.44-0.62c-48.68-7.85-80.44-36.28-98.73-81.11c-0.95-2.32-1.75-4.7-2.61-7.06
				c-3.32-9.11-1.44-11.6,8.29-10.09c51.75,8.04,89.53,34.15,108.5,84.41c0.47,1.24,1.05,2.44,1.92,4.31
				c0.46,0.99,1.84,1.1,2.45,0.19c2.99-4.41,5.66-7.96,7.64-11.86c9.82-19.26,9.23-39.51,5.2-60.04c-0.9-4.61-4.36-4.38-7.76-4.34
				c-18.54,0.23-36.31-3.31-52.5-12.42c-26.17-14.72-47.15-36.62-55.5-65.98c-3.5-12.31-5.54-25.32-5.22-38.14
				c0.4-16.37,3.8-32.56,8.83-48.09c0.3-0.94,0.62-1.88,0.93-2.82c0.06-0.16,0.11-0.33,0.17-0.49L116.17,82.04z M391.92,243.12
				c-3.04-14.2-9.95-27.67-17.29-32.96c-0.96-0.69-2.27-0.3-2.68,0.8c-4.42,11.93-1.89,37.18,5.49,49.6
				c2.03,3.41,7.23,1.24,6.19-2.59c-1-3.68-2.1-7.34-3.26-10.98c-0.58-1.82-1.19-3.63-1.8-5.43c-0.53-1.54-1.28-3.3-1.02-5.02
				c0.28-1.91,2.71-2.42,4.44-1.76c1.54,0.59,1.79,1.95,2.46,3.38c0.73,1.56,1.18,3.24,1.66,4.88c0.14,0.48,0.28,0.97,0.42,1.45
				C387.52,247.97,392.68,246.66,391.92,243.12z"/>
		</g>
	</g>
</g>
<g id="Text_1" class="st1">
	<g class="st2">
		<g>
			<path class="st0" d="M243.1,349.34c0.82-0.17,1.63-0.5,2.45-0.49c9.56,0.07,19.12,0.15,28.68,0.34c1.96,0.04,3.94,0.41,5.87,0.84
				c8.41,1.87,13.25,7.2,13.74,14.99c0.51,8.2-4.03,14.88-12.03,17.67c-1.06,0.37-2.12,0.71-2.88,0.97
				c5.06,7.4,10.07,14.66,15.01,21.96c2.6,3.84,5.5,7.27,10.21,8.55c0.77,0.21,1.57,0.34,1.89,0.97
				c-10.89,3.39-17.22,1.1-22.82-7.48c-3.89-5.95-7.54-12.06-11.32-18.08c-2.19-3.49-6.78-5.23-10.46-3.73
				c-0.71,0.29-1.28,1.8-1.3,2.75c-0.09,6.53,0.08,13.06-0.02,19.59c-0.05,3.53,1.54,5.43,4.9,6.12c0.87,0.18,1.69,0.6,2.53,0.91
				c-0.08,0.28-0.16,0.55-0.23,0.83c-8.14,0-16.27,0-24.41,0c-0.09-0.23-0.18-0.47-0.27-0.7c1.04-0.4,2.06-0.85,3.12-1.18
				c2.65-0.82,4.08-2.48,4.08-5.36c-0.04-17.5-0.06-34.99-0.03-52.49c0-2.91-1.25-4.59-4.08-5.2c-0.93-0.2-1.81-0.64-2.71-0.97
				C243.04,349.88,243.07,349.61,243.1,349.34z M260.1,366.97c0.01,0,0.02,0,0.02,0c0,2.33,0,4.66,0,6.99
				c-0.02,8.83-0.02,8.83,8.82,8.29c8.96-0.55,13.8-5.55,14.09-14.54c0.28-8.68-4.29-14.16-12.88-15.29
				c-2.19-0.29-4.42-0.21-6.62-0.39c-2.5-0.2-3.6,0.73-3.48,3.39C260.23,359.27,260.1,363.12,260.1,366.97z"/>
			<path class="st0" d="M197.04,347.69c19.99,0.04,33.55,14.06,33.49,34.63c-0.06,20.45-14.72,35.46-34.5,35.33
				c-20.03-0.13-33.86-14.52-33.68-35.03C162.52,361.98,176.75,347.65,197.04,347.69z M173.31,380.84
				c0.02,4.59,0.68,9.14,1.83,13.26c1.77,6.34,5.31,12.33,10.64,16.18c5.33,3.85,12.57,5.31,18.7,2.94
				c4.98-1.92,8.84-6.15,11.14-10.96c2.3-4.81,3.16-10.2,3.42-15.53c0.44-8.96-0.91-18.37-6.06-25.71
				c-5.16-7.34-14.79-11.99-23.36-9.35c-4.68,1.44-8.59,4.88-11.19,9.02C174.8,366.47,173.28,373.7,173.31,380.84z"/>
			<path class="st0" d="M380.13,415.93c-8.66,0-16.74,0-24.81,0c-0.04-0.25-0.09-0.49-0.13-0.74c0.66-0.28,1.31-0.6,1.99-0.82
				c3.96-1.26,4.85-2.82,3.49-6.82c-1.35-3.97-2.79-7.92-4.44-11.77c-0.38-0.88-1.78-1.84-2.73-1.86
				c-7.35-0.15-14.71-0.17-22.06,0.05c-1.1,0.03-2.65,1.27-3.13,2.34c-1.64,3.6-2.96,7.35-4.28,11.09
				c-1.47,4.16-0.84,5.31,3.34,6.71c0.79,0.26,1.56,0.61,2.19,1.75c-6.08,0-12.15,0-18.68,0c0.55-0.66,0.85-1.39,1.29-1.49
				c4.51-1.04,6.62-4.25,8.19-8.29c7-18.04,14.14-36.02,21.19-54.04c0.83-2.13,1.53-3.8,4.5-3.75c2.8,0.05,3.17,1.82,3.87,3.62
				c7.19,18.47,14.41,36.92,21.52,55.41c1.33,3.47,3.13,6.21,6.98,7.13C378.93,414.57,379.31,415.2,380.13,415.93z M342.48,359.22
				c-4.17,10.83-7.99,20.76-11.94,31.03c8.04,0,15.62,0,23.66,0C350.32,379.98,346.6,370.13,342.48,359.22z"/>
			<path class="st0" d="M92.92,362.52c-0.46,0.18-2.14-2.98-2.4-3.59c-0.88-2.06-1.79-4.4-3.89-5.49c-2.04-1.06-4.64-0.96-6.87-0.97
				c-4.78-0.03-9.56,0.07-14.34-0.05c-2.14-0.05-2.88,0.77-2.86,2.85c0.06,7.46,0.05,14.93-0.02,22.39
				c-0.02,2.01,0.84,2.64,2.74,2.59c3.96-0.1,7.93-0.13,11.89-0.04c3.54,0.09,5.35-1.74,6.18-4.96c0.26-1.02,0.73-1.98,1.11-2.97
				c0.31,0.08,0.62,0.17,0.93,0.25c0,6.08,0,12.17,0,18.25c-0.25,0.15-0.51,0.29-0.76,0.44c-0.52-0.85-1.23-1.64-1.53-2.56
				c-1.5-4.75-1.87-5.08-6.87-5.1c-3.73-0.01-7.48-0.14-11.19,0.14c-0.88,0.07-2.35,1.51-2.37,2.35
				c-0.17,7.58-0.05,15.16-0.07,22.74c-0.01,3.09,1.64,4.69,4.45,5.4c1.03,0.26,2.06,0.52,3.09,0.78c-0.05,0.31-0.09,0.62-0.14,0.93
				c-8.24,0-16.48,0-24.72,0c-0.07-0.27-0.13-0.54-0.2-0.82c0.97-0.3,1.93-0.64,2.92-0.88c2.88-0.68,4.46-2.42,4.46-5.42
				c0-17.61-0.02-35.22,0-52.83c0-2.67-1.44-4.04-3.81-4.72c-1.15-0.33-2.3-0.64-3.45-0.96c0.02-0.34,0.04-0.67,0.07-1.01
				c1.05-0.14,2.1-0.39,3.15-0.39c14.11-0.05,28.22-0.03,42.33-0.14c2.24-0.02,3.18,0.63,3.1,2.95c-0.07,2-0.08,4.01-0.07,6.01
				c0,1.04,0.01,2.08,0.02,3.12c0,0.34,0.08,1.2-0.23,1.37C93.41,362.31,93.34,362.36,92.92,362.52z"/>
			<path class="st0" d="M104.96,349.28c8.13,0,16.26,0,24.39,0c0.08,0.27,0.15,0.53,0.23,0.8c-0.71,0.31-1.4,0.73-2.14,0.92
				c-4.24,1.04-5.22,2.12-5.33,6.46c-0.11,4.43-0.11,8.87-0.11,13.3c0,12.83,0.08,25.67-0.01,38.5c-0.02,2.56,0.75,3.55,3.37,3.49
				c5.01-0.11,10.03,0.13,15.05,0.04c7.76-0.13,9.3-1.41,11.91-8.73c0.52-1.45,0.09-4.19,3.53-3.41
				c-0.41,5.05-0.82,10.12-1.25,15.48c-16.72,0-33.26,0-49.81,0c-0.08-0.26-0.16-0.52-0.24-0.78c0.92-0.34,1.81-0.76,2.76-0.99
				c3-0.73,4.62-2.5,4.63-5.68c0.03-17.27,0.08-34.53,0.13-51.8c0.01-3.12-1.43-5.05-4.55-5.69c-0.96-0.2-1.89-0.57-2.83-0.86
				C104.79,349.98,104.87,349.63,104.96,349.28z"/>
		</g>
	</g>
</g>
<g id="Text2" class="st1">
	<g class="st2">
		<g>
			<path class="st0" d="M216.75,367.47c-12.08,2.37-18.66,16.07-14.11,27.15c1.16,2.84,3.11,5.54,5.98,6.84
				c2.93,1.33,6.48,0.99,9.38-0.4c2.9-1.39,5.21-3.72,7.03-6.3c3.68-5.19,5.57-11.53,5.31-17.81c-0.11-2.64-0.67-5.43-2.58-7.33
				c-1.92-1.91-4.86-2.55-7.62-2.5C218.97,367.14,217.84,367.26,216.75,367.47z M230.75,364.92c5.16,3.05,13.31,7.25,12.66,0.26
				c-0.18-1.97-0.29-4.01,0.3-5.93c1.02-3.31,3.35-5.14,5.76-4.77c2.36,0.36,3.69,2.29,3.87,5.63c0.02,0.37,0.03,0.74,0.03,1.11
				c0,4.83,4.99,4.81,8.47,4.03c1.24-0.28,7.18-2.43,8.1-1.13c1.47,2.07,0.27,3.9-0.63,5.89c-3.32,7.31-6.25,14.76-8.49,22.48
				c-1,3.46-1.01,9.83,3.3,11.12c4.53,1.36,10.37-4.9,12.26-8.39c1.93-3.56,2.29-7.73,3.24-11.67c1.44-5.93,4.34-11.49,8.37-16.07
				c3.72-4.23,8.68-7.72,14.29-8.22c5.61-0.5,11.75,2.73,13.26,8.16c1.58-4.5,6.51-7.56,11.25-6.97
				c-3.31,12.81-9.11,25.37-8.38,38.58c0.28,5.03,4.57,4.92,7.6,1.88c3.33-3.35,6.06-7.3,8.01-11.61c1.11,0.8,2.22,1.6,3.33,2.4
				c-1.99,6.16-6.25,11.55-11.79,14.91c-2.69,1.63-6.18,2.56-9.3,1.77c-3.66-0.93-5.08-4.04-5.54-7.53
				c-0.33-2.51-0.17-5.07-0.52-7.57c-3.02,4.59-6.14,9.28-10.58,12.52c-3.41,2.49-7.9,4.02-11.9,2.67
				c-4.61-1.56-7.23-6.38-8.86-10.97c-3.12,3.94-6.49,7.93-11.04,10.06s-10.63,1.83-13.88-2c-4.49-5.3-2.36-14.84,0.28-20.51
				c2.13-4.57,4.42-9.07,6.72-13.77c-1.97-0.19-3.94-0.28-5.92-0.38c-1.54-0.08-4.5-0.85-5.75,0.19c-3.83,3.2-6.75,3.75-12.99,3.02
				c1.03,2.65,0.41,7.07,0.37,8.33c-0.3,10.61-8.27,21.44-18.22,25.16c-4.64,1.74-9.93,1.78-14.57,0.02
				c-5.22-1.98-7.42-5.7-10.42-10.02c-0.79,1.06-1.4,1.93-2.05,2.76c-3.19,4.08-6.84,7.48-12.23,8.4
				c-5.8,0.99-10.44-1.51-11.41-7.27c-0.78-4.64-0.75-9.57-0.18-14.26c2.21-18.14,7.28-35.54,14.84-52.18
				c1.83-4.02,4.45-9.57,8.62-11.61c11.03-5.38,7.43,15.28,6.18,20.26c-3.06,12.19-9.75,23.29-17.27,33.21
				c-2.77,3.66-4.12,8.03-4.43,12.58c-0.33,4.75-1.71,15.54,6.1,13.93c3.64-0.75,6.54-4.57,8.44-7.49
				c2.18-3.36,2.69-7.18,3.46-11.01c0.99-4.95,3.03-9.61,6.03-13.66c2.04-2.75,6.42-7.26,11.03-8.7c5.31-1.66,11.21-2.31,16.38,0.12
				C227.56,362.96,228.98,363.87,230.75,364.92z M287.31,391.87c0.18,4.09,2.15,10.5,7.44,9.69c3.15-0.48,5.72-3.54,7.44-6.01
				c3.71-5.35,6.58-11.49,7.83-17.91c0.85-4.4,1.09-13.28-5.2-13.82c-4.42-0.38-8.69,4.18-11,7.44
				C289.77,376.97,287,384.82,287.31,391.87z M178.41,373.17c-0.01,0.05-0.02,0.1-0.03,0.15c8.37-9.89,14.19-21.92,16.76-34.62
				c0.57-2.8,0.98-5.66,0.7-8.5c-0.09-0.95-0.31-1.98-1.06-2.57c-3.18-2.51-6.71,9.8-7.31,11.59
				C183.72,350.32,180.69,361.67,178.41,373.17z"/>
			<path class="st0" d="M91.35,391.41c3.3-1.78,6.15-3.51,10.2-2.38c-0.32-0.09-1.92,2.51-2.1,2.86c-1,1.92-1.9,3.89-2.56,5.95
				c-0.61,1.93-0.99,3.75-0.33,5.75c0.67,2.03,2.18,3.54,4.03,4.54c5.84,3.17,15.16,2.68,19.5-2.8c4.55-5.75,7.24-12.38,9.09-19.39
				c1.1-4.16,1.95-8.39,3.07-13.26c-4.76,0.33-9.01,0.62-13.22,0.92c0.3-2.79,2.4-4.82,6.02-5.44c1.72-0.29,3.51-0.5,5.23-0.35
				c2.28,0.2,2.89-0.87,3.43-2.85c1.51-5.5,3.02-11.01,4.99-16.36c2-5.43,4.77-10.29,7.45-15.38c-0.22,0.41-7.56-1.25-8.36-1.39
				c-2.93-0.49-5.86-0.95-8.82-1.23c-5.62-0.53-11.69-0.55-17.05,1.45c-6.55,2.44-10.73,9.07-8.36,16.01
				c1.7,4.99,6.53,8.43,11.79,8.47c0.88,0.01,1.76,0,2.76,0c-1.34,2.87-6.43,4.73-10.17,3.86c-4.58-1.06-7.31-4.06-8.62-8.46
				c-2.53-8.48,0.96-17.29,8.92-22.52c8.67-5.69,18.35-6.24,28.23-5.3c7.06,0.67,14.08,1.64,21.13,2.42
				c4.42,0.49,8.88,0.87,13.32,0.46c4.66-0.43,8.14-2.15,12.36-3.97c-0.04,0.71,0.1,1.75-0.17,2.67
				c-3.31,11.03-20.07,10.46-28.78,8.9c-2.97-0.53-4.14,1.43-4.89,3.95c-1.71,5.74-3.25,11.54-4.69,17.35
				c-0.88,3.54-1.34,7.19-2,10.83c7.38,0,14.4,0,21.38,0c-0.25,3.04-2.4,5.4-6.56,5.87c-3.64,0.42-7.36,0.25-11.04,0.24
				c-4.83-0.01-4.84-0.06-5.67,4.58c-1.4,7.85-3.48,15.42-7.64,22.36c-4.89,8.15-13.27,14.02-22.92,14.57
				c-4.81,0.27-11.02-0.66-15.01-3.61c-2.57-1.89-4.1-4.72-4.98-7.73c-0.45-1.54-0.75-3.13-0.98-4.72c-0.06-0.37-1.1-4.64-1.47-4.38
				C87.84,393.93,91.35,391.41,91.35,391.41z"/>
		</g>
	</g>
</g>
<g id="Layer_3" class="st1">
	<g class="st2">
		<g>
			<path class="st0" d="M224.93,73.02c-0.38,0.25-0.56,0.7-0.47,1.15c0.15,0.81,0.17,1.1,0.31,1.28c0.71,0.91,1.46,1.8,2.24,2.66
				c10.51,11.48,19.56,23.91,24.94,38.7c9.04,24.87,8.23,48.55-8.54,70.27c-1.35,1.75-2.86,3.36-4.61,5.28
				c-0.67,0.73-0.12,1.92,0.87,1.88c0.39-0.02,0.73-0.04,1.07-0.1c35.01-6.14,64.13-40.11,65.55-75.7
				c1-25.12-6.75-47.74-18.06-69.57c-1.54-2.98-3.52-2.87-6.16-2.25c-14.65,3.47-28.6,8.74-41.63,16.26
				C234.99,66.02,229.88,69.73,224.93,73.02z M197.42,194.36c1.05,0.15,1.71-1.11,0.98-1.88c-0.08-0.09-0.16-0.16-0.24-0.24
				c-15.45-14.13-21.58-31.9-19.93-52.44c1.92-23.77,12.94-43.27,29.09-60.23c4.68-4.92,4.61-5.41-0.84-9.37
				c-15.69-11.4-33.14-18.76-52-23.1c-3.97-0.91-6.04-0.09-7.92,3.54c-6.59,12.77-12,25.98-14.7,40.1
				c-6.54,34.18,0.71,64.02,28.5,86.99C170.91,186.45,182.77,192.28,197.42,194.36z M185.82,145.38c0,2.49-0.28,5.01,0.04,7.46
				c2.44,18.24,10.68,32.51,27.87,40.76c4.07,1.95,7.57,1.36,11.28-0.68c14.39-7.93,21.9-20.71,24.13-36.35
				c4.24-29.66-8.2-53.21-28.29-73.5c-1.78-1.8-4.7-1.79-6.47,0.02C197.51,100.39,186.03,120.31,185.82,145.38z M86.3,204.64
				c13.53-24.26,9.17-74.68-7.95-91.09c-0.53-0.51-1.41-0.39-1.77,0.25c-11.69,20.84-16.6,46.3-10.58,69.7
				c1.7,6.59,4.33,12.95,7.8,18.8c0.43,0.73,1.27,1.55,1.98,1.08c0.45-0.3,0.47-0.93,0.45-1.47c0-8.69-0.36-17.37-0.82-26.05
				c-0.28-5.3-0.64-10.59-0.94-15.89c-0.18-3.1-0.5-7.9,2.65-9.74c3.11-1.81,4.84,3.3,5.07,5.56c0.46,4.52,0.26,9.24,0.38,13.78
				c0.3,11.43,0.41,23.15,1.63,34.63C84.32,205.31,85.77,205.6,86.3,204.64z M193.48,252.91c-9.84-25.62-53.23-56.53-71.83-51.14
				c-0.57,0.17-0.94,0.72-0.82,1.31c5.34,25.45,44.81,60.28,66.84,59.57c1.03-0.03,1.46-1.34,0.66-1.99
				c-0.11-0.09-0.21-0.18-0.32-0.26c-7.37-6.03-14.75-12.04-22.11-18.09c-3.68-3.02-7.35-6.05-11-9.1c-1.93-1.61-4.21-2.9-5.85-4.85
				c-1.47-1.75-3.72-6.1,0.11-6.71c1.23-0.19,2.8,0.14,3.81,0.9c6.23,4.66,12.11,9.81,18.13,14.76c6.71,5.51,13.44,11,20.61,16.86
				C192.6,254.88,193.89,253.97,193.48,252.91z M311.87,201.1c-27.85,2.1-69.65,32.21-71.97,51.62c-0.12,0.99,1.05,1.62,1.83,0.99
				c3.65-2.96,7.14-5.78,10.62-8.62c9.51-7.76,18.98-15.58,28.53-23.29c1.78-1.44,5.6-2.17,6.45,0.68c0.62,2.05-1.52,4.72-2.98,5.93
				c-12.82,10.53-25.8,20.87-38.71,31.28c-0.28,0.23-0.56,0.46-0.84,0.72c-0.84,0.75-0.17,2.15,0.94,1.94
				c29.68-5.54,57.6-30.4,67.31-59.78C313.29,201.79,312.67,201.04,311.87,201.1z M188.84,48.87c-0.38,0.52-0.24,1.25,0.3,1.61
				c9.2,6.08,17.92,11.96,26.85,17.49c1.09,0.67,3.73-0.37,5.23-1.29c5.49-3.4,10.76-7.15,16.2-10.63c2.69-1.72,5.53-3.23,8.62-4.97
				c0.58-0.32,0.75-1.09,0.37-1.63c-7.54-10.72-17.05-18.46-27.59-25.06c-0.83-0.52-2.7-0.21-3.62,0.41
				C205.24,31.4,196.12,38.93,188.84,48.87z M136,55.91c2.01-4.73,4.56-9.23,6.93-13.8c1.66-3.21,4.14-4.53,7.81-3.46
				c8.28,2.41,16.69,4.44,24.87,7.15c3.57,1.19,5.69,0.89,8.04-2.19c8.05-10.54,18.15-18.85,29.07-26.28
				c3.42-2.33,6.11-2.14,9.47,0.12c11.1,7.45,21.57,15.57,29.33,26.64c2,2.85,4.09,3.01,7.26,1.98c8.52-2.78,17.16-5.14,25.77-7.64
				c3.96-1.15,6.55,0.29,8.51,3.97c9.57,18.02,17.22,36.69,19.9,57.09c6.91,52.54-29.22,97.62-78.45,103.08
				c-2.43,0.27-4.88,0.34-7.83,0.49c-0.67,0.04-1.16,0.66-1.04,1.32c3.79,20.94,3.78,40.79-8.19,58.85
				c-0.44,0.66-0.09,1.55,0.68,1.72c6.79,1.48,8.07,0.55,10.55-5.88c15.46-40.06,45.96-60.34,87.26-66.34
				c6.72-0.98,8.16,1,6.03,7.51c-14.49,44.2-52.15,71.86-98.66,72.46c-1.33,0.02-2.67,0.15-3.98,0.03
				c-6.7-0.62-12.27,1.32-18.04,5.14c-10.17,6.73-22.3,10.23-39.66,9.47c-1.25-0.05-1.63,1.68-0.47,2.16
				c3.14,1.27,6.28,2.51,9.51,3.49c47.3,14.38,91.66,8.23,132.48-19.94c20.25-13.97,34.95-32.88,46.08-54.71
				c1.45-2.84,0.53-4.44-1.36-6.49c-14.67-15.95-19.22-34.49-13.51-55.39c0.68-2.49,2.29-5.6,4.34-6.55
				c1.34-0.62,4.67,1.88,6.32,3.47c6.85,6.62,10.14,13.73,13.48,20.75c0.17,0.36,0.4,0.7,0.57,1.09c0.46,1.03,2,0.78,2.13-0.34
				c1.93-15.85,0.38-30.61-2.69-45.31c-11.79-56.51-58.95-101.16-117.29-111c-1.69-0.29-3.97-0.97-5.19-2.32
				c-1.95-2.17,0.06-4.62,2.44-5.31c1.48-0.43,3.29,0.07,4.91,0.38c31.73,5.99,59.73,19.68,82.19,42.91
				c31.39,32.45,47.17,71.73,43.21,116.91c-5.3,60.42-38.08,102.76-93.58,125.01c-58.75,23.55-113.4,12.72-161.74-28.37
				c-13.83-11.76-24.4-26.11-33.14-41.99c-3.83-6.95-9.36-12.96-13.16-19.92c-16.1-29.52-14.07-59.34-0.52-89.1
				c1.85-4.07,4.04-8.01,6.32-11.87c3.02-5.12,5.62-5.32,8.79-0.42c9.49,14.63,16.71,30.25,19.34,47.66
				c3.42,22.53-1.19,43.65-12.05,63.44c-2.49,4.54-2.34,7.93,0.37,12.27c10.82,17.3,23.62,32.58,41.86,42.42
				c19.08,10.29,38.94,12.69,59.55,4.88c1.17-0.44,2.29-1.02,3.66-1.72c0.89-0.46,0.78-1.77-0.18-2.07
				c-0.73-0.23-1.33-0.39-1.94-0.49c-38.67-6.23-63.9-28.82-78.42-64.43c-0.75-1.84-1.39-3.74-2.07-5.61
				c-2.63-7.24-1.14-9.22,6.59-8.01c41.11,6.39,71.12,27.13,86.19,67.05c0.37,0.99,0.83,1.94,1.53,3.42
				c0.37,0.79,1.46,0.87,1.95,0.15c2.38-3.51,4.49-6.32,6.07-9.42c7.8-15.3,7.33-31.39,4.13-47.69c-0.72-3.66-3.46-3.48-6.16-3.45
				c-14.72,0.18-28.84-2.63-41.7-9.86c-20.79-11.69-37.45-29.09-44.09-52.41c-2.78-9.78-4.4-20.11-4.15-30.3
				c0.32-13,3.02-25.86,7.02-38.2c0.24-0.75,0.49-1.49,0.74-2.24c0.04-0.13,0.09-0.26,0.13-0.39L136,55.91z M355.04,183.87
				c-2.41-11.28-7.9-21.98-13.73-26.18c-0.76-0.55-1.81-0.24-2.13,0.64c-3.51,9.47-1.5,29.53,4.36,39.4
				c1.61,2.71,5.75,0.98,4.92-2.06c-0.79-2.93-1.66-5.83-2.59-8.72c-0.46-1.44-0.94-2.88-1.43-4.31c-0.42-1.23-1.01-2.62-0.81-3.99
				c0.22-1.52,2.15-1.93,3.52-1.4c1.22,0.47,1.42,1.55,1.95,2.69c0.58,1.24,0.94,2.57,1.32,3.88c0.11,0.38,0.22,0.77,0.33,1.15
				C351.55,187.72,355.65,186.68,355.04,183.87z"/>
		</g>
	</g>
</g>
</svg>
