<?xml version="1.0" encoding="us-ascii" standalone="no"?><svg xmlns="http://www.w3.org/2000/svg" xmlns:xlink="http://www.w3.org/1999/xlink" contentStyleType="text/css" height="784px" preserveAspectRatio="none" style="width:1036px;height:784px;background:#FFFFFF;" version="1.1" viewBox="0 0 1036 784" width="1036px" zoomAndPan="magnify"><defs/><g><text fill="#000000" font-family="Helvetica" font-size="14" font-weight="bold" lengthAdjust="spacing" textLength="201" x="410.5" y="20.7803">Flora High-Level Architecture</text><!--cluster Client Access--><g id="cluster_Client Access"><rect fill="#FCFDFB" height="217.5" rx="2.5" ry="2.5" style="stroke:#8B9683;stroke-width:1.0;" width="176" x="255" y="130.5"/><text fill="#000000" font-family="Helvetica" font-size="14" font-weight="bold" lengthAdjust="spacing" textLength="94" x="296" y="143.2803">Client Access</text></g><!--cluster Application--><g id="cluster_Application"><rect fill="#FCFDFB" height="222" rx="2.5" ry="2.5" style="stroke:#8B9683;stroke-width:1.0;" width="188" x="249" y="380"/><text fill="#000000" font-family="Helvetica" font-size="14" font-weight="bold" lengthAdjust="spacing" textLength="79" x="303.5" y="392.7803">Application</text></g><!--cluster External Services--><g id="cluster_External Services"><rect fill="#FCFDFB" height="406" rx="2.5" ry="2.5" style="stroke:#8B9683;stroke-width:1.0;" width="218" x="7" y="372"/><text fill="#000000" font-family="Helvetica" font-size="14" font-weight="bold" lengthAdjust="spacing" textLength="118" x="57" y="384.7803">External Services</text></g><!--entity cloudfront--><g id="elem_cloudfront"><path d="M300.6602,180.0454 C305.035,173.0212 310.1595,173.631 314.844,179.7102 C318.8419,172.6081 326.4019,170.9094 330.6459,179.4618 C334.5206,173.735 338.4004,172.296 343.3505,178.2967 C347.7799,171.2562 353.9292,171.3473 357.518,179.1017 C361.8225,172.5337 369.1545,172.4815 372.7604,179.8649 C377.343,173.0962 384.0184,173.3675 387.258,181.1985 C393.7789,183.1273 396.3114,188.0893 391.1212,193.6512 C397.1657,199.8465 394.4801,206.4152 386.4115,207.9678 C381.805,214.7138 377.3544,214.8725 371.8876,208.9544 C366.9821,215.0417 362.6237,215.2162 357.422,209.3116 C354.188,215.9386 348.402,217.6835 343.7759,210.7082 C339.834,217.1569 333.9896,216.4189 330.9975,209.7807 C326.7251,215.4747 319.9887,214.9636 316.7624,208.5507 C311.1321,214.9429 306.1317,215.9418 300.8368,208.1735 C291.8766,205.8704 291.092,200.7849 296.5529,194.0939 C291.1487,187.572 293.3009,182.8358 300.6602,180.0454 " fill="#F2F5EE" style="stroke:#8B9683;stroke-width:0.5;"/><text fill="#000000" font-family="Helvetica" font-size="14" lengthAdjust="spacing" textLength="71" x="307.5" y="197.2803">CloudFront</text></g><!--entity frontend--><g id="elem_frontend"><rect fill="#F1F1F1" height="62" rx="2.5" ry="2.5" style="stroke:#181818;stroke-width:0.5;" width="128" x="279" y="262"/><text fill="#000000" font-family="Helvetica" font-size="14" lengthAdjust="spacing" textLength="99" x="289" y="282.7803">React Frontend</text><text fill="#000000" font-family="Helvetica" font-size="14" lengthAdjust="spacing" textLength="108" x="289" y="296.7803">Vite + TypeScript</text><text fill="#000000" font-family="Helvetica" font-size="14" lengthAdjust="spacing" textLength="88" x="289" y="310.7803">apps/frontend</text></g><!--entity backend--><g id="elem_backend"><rect fill="#F1F1F1" height="48" rx="2.5" ry="2.5" style="stroke:#181818;stroke-width:0.5;" width="156" x="265" y="413"/><text fill="#000000" font-family="Helvetica" font-size="14" lengthAdjust="spacing" textLength="136" x="275" y="433.7803">Express Backend API</text><text fill="#000000" font-family="Helvetica" font-size="14" lengthAdjust="spacing" textLength="89" x="275" y="447.7803">apps/backend</text></g><!--entity postgres--><g id="elem_postgres"><path d="M273.5,531 C273.5,521 332,521 332,521 C332,521 390.5,521 390.5,531 L390.5,568 C390.5,578 332,578 332,578 C332,578 273.5,578 273.5,568 L273.5,531 " fill="#FCFDFB" style="stroke:#8B9683;stroke-width:0.5;"/><path d="M273.5,531 C273.5,541 332,541 332,541 C332,541 390.5,541 390.5,531 " fill="none" style="stroke:#8B9683;stroke-width:0.5;"/><text fill="#000000" font-family="Helvetica" font-size="14" lengthAdjust="spacing" textLength="97" x="283.5" y="555.7803">PostgreSQL 15</text><text fill="#000000" font-family="Helvetica" font-size="14" lengthAdjust="spacing" textLength="96" x="283.5" y="569.7803">Docker on EC2</text></g><!--entity auth0--><g id="elem_auth0"><rect fill="#F1F1F1" height="48" rx="2.5" ry="2.5" style="stroke:#181818;stroke-width:0.5;" width="110" x="91" y="413"/><text fill="#000000" font-family="Helvetica" font-size="14" lengthAdjust="spacing" textLength="37" x="101" y="433.7803">Auth0</text><text fill="#000000" font-family="Helvetica" font-size="14" lengthAdjust="spacing" textLength="90" x="101" y="447.7803">Authentication</text></g><!--entity stripe--><g id="elem_stripe"><rect fill="#F1F1F1" height="48" rx="2.5" ry="2.5" style="stroke:#181818;stroke-width:0.5;" width="166" x="35" y="525.5"/><text fill="#000000" font-family="Helvetica" font-size="14" lengthAdjust="spacing" textLength="37" x="45" y="546.2803">Stripe</text><text fill="#000000" font-family="Helvetica" font-size="14" lengthAdjust="spacing" textLength="146" x="45" y="560.2803">Payments + Webhooks</text></g><!--entity gemini--><g id="elem_gemini"><rect fill="#F1F1F1" height="48" rx="2.5" ry="2.5" style="stroke:#181818;stroke-width:0.5;" width="170" x="31" y="618"/><text fill="#000000" font-family="Helvetica" font-size="14" lengthAdjust="spacing" textLength="95" x="41" y="638.7803">Google Gemini</text><text fill="#000000" font-family="Helvetica" font-size="14" lengthAdjust="spacing" textLength="150" x="41" y="652.7803">AI Message Generation</text></g><!--entity email--><g id="elem_email"><rect fill="#F1F1F1" height="48" rx="2.5" ry="2.5" style="stroke:#181818;stroke-width:0.5;" width="145" x="49.5" y="706"/><text fill="#000000" font-family="Helvetica" font-size="14" lengthAdjust="spacing" textLength="88" x="59.5" y="726.7803">SMTP / Gmail</text><text fill="#000000" font-family="Helvetica" font-size="14" lengthAdjust="spacing" textLength="125" x="59.5" y="740.7803">Transactional Email</text></g><!--entity customer--><g id="elem_customer"><ellipse cx="343" cy="49" fill="#F1F1F1" rx="8" ry="8" style="stroke:#181818;stroke-width:0.5;"/><path d="M343,57 L343,84 M330,65 L356,65 M343,84 L330,99 M343,84 L356,99 " fill="none" style="stroke:#181818;stroke-width:0.5;"/><text fill="#000000" font-family="Helvetica" font-size="14" lengthAdjust="spacing" textLength="62" x="312" y="111.2803">Customer</text></g><!--entity spacer--><g id="elem_spacer"><rect fill="none" height="20" rx="2.5" ry="2.5" style="stroke:#8B9683;stroke-width:0.5;" width="20" x="453" y="427"/></g><g id="elem_GMN34"><path d="M877,255.5 L877,313 L407.42,317 L877,321 L877,330.5 A0,0 0 0 0 877,330.5 L1029,330.5 A0,0 0 0 0 1029,330.5 L1029,265.5 L1019,255.5 L877,255.5 A0,0 0 0 0 877,255.5 " fill="#FEFFDD" style="stroke:#181818;stroke-width:0.5;"/><path d="M1019,255.5 L1019,265.5 L1029,265.5 L1019,255.5 " fill="#FEFFDD" style="stroke:#181818;stroke-width:0.5;"/><text fill="#000000" font-family="Helvetica" font-size="13" lengthAdjust="spacing" textLength="131" x="883" y="270.5103">Single-page storefront:</text><text fill="#000000" font-family="Helvetica" font-size="13" lengthAdjust="spacing" textLength="103" x="883" y="283.5103">- browse products</text><text fill="#000000" font-family="Helvetica" font-size="13" lengthAdjust="spacing" textLength="80" x="883" y="296.5103">- manage cart</text><text fill="#000000" font-family="Helvetica" font-size="13" lengthAdjust="spacing" textLength="61" x="883" y="309.5103">- checkout</text><text fill="#000000" font-family="Helvetica" font-size="13" lengthAdjust="spacing" textLength="100" x="883" y="322.5103">- account actions</text></g><g id="elem_GMN37"><path d="M503,393 L503,416 L421.44,420 L503,424 L503,481 A0,0 0 0 0 503,481 L637,481 A0,0 0 0 0 637,481 L637,403 L627,393 L503,393 A0,0 0 0 0 503,393 " fill="#FEFFDD" style="stroke:#181818;stroke-width:0.5;"/><path d="M627,393 L627,403 L637,403 L627,393 " fill="#FEFFDD" style="stroke:#181818;stroke-width:0.5;"/><text fill="#000000" font-family="Helvetica" font-size="13" lengthAdjust="spacing" textLength="113" x="509" y="408.0103">Core business API:</text><text fill="#000000" font-family="Helvetica" font-size="13" lengthAdjust="spacing" textLength="58" x="509" y="421.0103">- products</text><text fill="#000000" font-family="Helvetica" font-size="13" lengthAdjust="spacing" textLength="44" x="509" y="434.0103">- orders</text><text fill="#000000" font-family="Helvetica" font-size="13" lengthAdjust="spacing" textLength="85" x="509" y="447.0103">- subscriptions</text><text fill="#000000" font-family="Helvetica" font-size="13" lengthAdjust="spacing" textLength="40" x="509" y="460.0103">- users</text><text fill="#000000" font-family="Helvetica" font-size="13" lengthAdjust="spacing" textLength="72" x="509" y="473.0103">- AI features</text></g><g id="elem_GMN40"><path d="M446.5,275 L446.5,311 L847.5,311 L847.5,285 L837.5,275 L446.5,275 " fill="#FEFFDD" style="stroke:#181818;stroke-width:0.5;"/><path d="M837.5,275 L837.5,285 L847.5,285 L837.5,275 " fill="#FEFFDD" style="stroke:#181818;stroke-width:1.0;"/><text fill="#000000" font-family="Helvetica" font-size="13" lengthAdjust="spacing" textLength="206" x="452.5" y="290.0103">CloudFront is the public entry point.</text><text fill="#000000" font-family="Helvetica" font-size="13" lengthAdjust="spacing" textLength="380" x="452.5" y="303.0103">It serves frontend assets and forwards API traffic to the backend.</text></g><!--link customer to cloudfront--><g id="link_customer_cloudfront"><path d="M343,114.84 C343,133.39 343,149.17 343,165.11 " fill="none" id="customer-to-cloudfront" style="stroke:#5F6B5A;stroke-width:1.1;"/><polygon fill="#5F6B5A" points="343,171.11,347,162.11,343,166.11,339,162.11,343,171.11" style="stroke:#5F6B5A;stroke-width:1.1;"/><text fill="#000000" font-family="Helvetica" font-size="12" lengthAdjust="spacing" textLength="39" x="303" y="153.2102">HTTPS</text></g><!--link cloudfront to frontend--><g id="link_cloudfront_frontend"><path d="M326.17,215.58 C326.17,229.09 326.17,240.6 326.17,255.54 " fill="none" id="cloudfront-to-frontend" style="stroke:#5F6B5A;stroke-width:1.1;"/><polygon fill="#5F6B5A" points="326.17,261.54,330.17,252.54,326.17,256.54,322.17,252.54,326.17,261.54" style="stroke:#5F6B5A;stroke-width:1.1;"/><text fill="#000000" font-family="Helvetica" font-size="12" lengthAdjust="spacing" textLength="32" x="278.17" y="222.8002">Serve</text><text fill="#000000" font-family="Helvetica" font-size="12" lengthAdjust="spacing" textLength="62" x="263.17" y="234.8002">SPA assets</text></g><!--link cloudfront to frontend--><!--link frontend to backend--><g id="link_frontend_backend"><path d="M364.33,324.25 C364.33,350.88 364.33,382.61 364.33,406.95 " fill="none" id="frontend-to-backend" style="stroke:#5F6B5A;stroke-width:1.1;"/><polygon fill="#5F6B5A" points="364.33,412.95,368.33,403.95,364.33,407.95,360.33,403.95,364.33,412.95" style="stroke:#5F6B5A;stroke-width:1.1;"/><text fill="#000000" font-family="Helvetica" font-size="12" lengthAdjust="spacing" textLength="32" x="331.33" y="352.8402">REST</text><text fill="#000000" font-family="Helvetica" font-size="12" lengthAdjust="spacing" textLength="19" x="337.83" y="364.8402">API</text></g><!--link frontend to backend--><!--link backend to postgres--><g id="link_backend_postgres"><path d="M312.5,461.41 C312.5,478.86 312.5,496.4 312.5,514.76 " fill="none" id="backend-to-postgres" style="stroke:#5F6B5A;stroke-width:1.1;"/><polygon fill="#5F6B5A" points="312.5,520.76,316.5,511.76,312.5,515.76,308.5,511.76,312.5,520.76" style="stroke:#5F6B5A;stroke-width:1.1;"/><text fill="#000000" font-family="Helvetica" font-size="12" lengthAdjust="spacing" textLength="38" x="273.5" y="475.3202">Prisma</text><text fill="#000000" font-family="Helvetica" font-size="12" lengthAdjust="spacing" textLength="30" x="277.5" y="487.3202">/ SQL</text></g><!--link backend to postgres--><!--link frontend to auth0--><g id="link_frontend_auth0"><path d="M278.77,293 C221.28,293 146,293 146,293 C146,293 146,365.49 146,406.57 " fill="none" id="frontend-to-auth0" style="stroke:#5F6B5A;stroke-width:1.1;"/><polygon fill="#5F6B5A" points="146,412.57,150,403.57,146,407.57,142,403.57,146,412.57" style="stroke:#5F6B5A;stroke-width:1.1;"/><text fill="#000000" font-family="Helvetica" font-size="12" lengthAdjust="spacing" textLength="37" x="97.6" y="277.2402">Login /</text><text fill="#000000" font-family="Helvetica" font-size="12" lengthAdjust="spacing" textLength="71" x="80.6" y="289.2402">access token</text></g><!--link backend to auth0--><g id="link_backend_auth0"><path d="M264.57,437 C243.44,437 227.01,437 207.42,437 " fill="none" id="backend-to-auth0" style="stroke:#5F6B5A;stroke-width:1.1;"/><polygon fill="#5F6B5A" points="201.42,437,210.42,441,206.42,437,210.42,433,201.42,437" style="stroke:#5F6B5A;stroke-width:1.1;"/><text fill="#000000" font-family="Helvetica" font-size="12" lengthAdjust="spacing" textLength="31" x="225.75" y="447.2402">Verify</text><text fill="#000000" font-family="Helvetica" font-size="12" lengthAdjust="spacing" textLength="24" x="229.25" y="459.2402">JWT</text></g><!--link backend to stripe--><g id="link_backend_stripe"><path d="M269.25,461.28 C269.25,496.35 269.25,557 269.25,557 C269.25,557 242.29,557 207.15,557 " fill="none" id="backend-to-stripe" style="stroke:#5F6B5A;stroke-width:1.1;"/><polygon fill="#5F6B5A" points="201.15,557,210.15,561,206.15,557,210.15,553,201.15,557" style="stroke:#5F6B5A;stroke-width:1.1;"/><text fill="#000000" font-family="Helvetica" font-size="12" lengthAdjust="spacing" textLength="48" x="220.25" y="553.4302">Payment</text><text fill="#000000" font-family="Helvetica" font-size="12" lengthAdjust="spacing" textLength="28" x="230.25" y="565.4302">flows</text></g><!--reverse link backend to stripe--><g id="link_backend_stripe"><path d="M267.12,467.38 C267.12,498.12 267.12,541 267.12,541 C267.12,541 235.44,541 201.28,541 " fill="none" id="backend-backto-stripe" style="stroke:#5F6B5A;stroke-width:1.1;"/><polygon fill="#5F6B5A" points="267.12,461.38,263.12,470.38,267.12,466.38,271.12,470.38,267.12,461.38" style="stroke:#5F6B5A;stroke-width:1.1;"/><text fill="#000000" font-family="Helvetica" font-size="12" lengthAdjust="spacing" textLength="58" x="208.12" y="530.3502">Webhooks</text></g><!--link backend to gemini--><g id="link_backend_gemini"><path d="M271.37,461.32 C271.37,515.62 271.37,642 271.37,642 C271.37,642 243.52,642 207.41,642 " fill="none" id="backend-to-gemini" style="stroke:#5F6B5A;stroke-width:1.1;"/><polygon fill="#5F6B5A" points="201.41,642,210.41,646,206.41,642,210.41,638,201.41,642" style="stroke:#5F6B5A;stroke-width:1.1;"/><text fill="#000000" font-family="Helvetica" font-size="12" lengthAdjust="spacing" textLength="51" x="216.87" y="596.8802">Generate</text><text fill="#000000" font-family="Helvetica" font-size="12" lengthAdjust="spacing" textLength="56" x="214.37" y="608.8802">messages</text></g><!--link backend to email--><g id="link_backend_email"><path d="M405.75,461.48 C405.75,531.9 405.75,730 405.75,730 C405.75,730 284.78,730 200.7,730 " fill="none" id="backend-to-email" style="stroke:#5F6B5A;stroke-width:1.1;"/><polygon fill="#5F6B5A" points="194.7,730,203.7,734,199.7,730,203.7,726,194.7,730" style="stroke:#5F6B5A;stroke-width:1.1;"/><text fill="#000000" font-family="Helvetica" font-size="12" lengthAdjust="spacing" textLength="29" x="372.25" y="685.5002">Send</text><text fill="#000000" font-family="Helvetica" font-size="12" lengthAdjust="spacing" textLength="36" x="368.75" y="697.5002">emails</text></g><!--link auth0 to stripe--><!--link stripe to gemini--><!--link gemini to email--><!--link backend to spacer--><!--link spacer to auth0--><!--link cloudfront to GMN40--><g id="link_cloudfront_GMN40"><path d="M393.88,193 C480.42,193 647,193 647,193 C647,193 647,245.79 647,274.66 " fill="none" id="cloudfront-GMN40" style="stroke:#5F6B5A;stroke-width:1.1;stroke-dasharray:7.0,7.0;"/></g><!--SRC=[XLRVSzCu47xNNx6JFZ9fQQ4SyC1C6kAsJBa9E0CFPnvaUsrhOaiUIMx8tV2_ivBjHESKU8gq-sb_VhkE5RP6Y6gbETo9ife_u2FMiD1P9IncjjF8c5KjM0MfibOra0jD2g4aCriXMwvv0odFjgLMdSoNYcp1phqEzARYkTe9MKB1QnDgSYnuLzj8IVitRn3ki7v4Ap8UO3BLj4gYjB7TKxJEFPTb7PffAG1Uugy1jP1ezos2qhPIWKAg70ssyE9v8DHSRftmPIXSQArsVNvdrz6hc-l5LBcfHBQLQ0nSdbzEbIx5MFoBS7br6lYDqZdgmVZhcpUlNhzu0ZIfybdqL_GcUXd6FMR-Utj7s8d5PVG-kWbhNwik_xsr7d9YwIgwNgt2JdFBKsx-4De1zOl86CyiNMVBpX0PKS-06yY62sD3fKXV2o8CBBACsZ63_nWGXKkq5Mf_WJvi1wIVI5DpUbFkMhXh3ngf1xFFIAx18r7cYVn258Tdi25InPaMhKqaRrjpKGm8RswyaB4Vx4SGtw9jQsAvcwEdepiwNdrljUEKAmcPWiNwVd2LzXBlQJZxnsCHORPMnfOQuqyFS7cToFUAG1gKXDNooZzhUu0P0pnG0sRW0OP2fYTdbcQ2pff22j9OVRUe9QyXHlqegDP_IcRHsUfv8jqFtGyL84VSQQRms59bCP5hlcz8OAZWNp6jbDgQFZgldxwwLSfbS8kDa8AStSD7Ag0B-1ObwgFFqYDEd7xShE42RXikwaHkNEBSRppAS-M4_YswqrYsaO4mfpqdv-y27i5RkDjirZ4BH2Dgf0TXN04fqNYz8EC6hM47vOWUMapWpwjuGtcjxzae6p5ZFmcqri8qF94NGErdWJbDYzuIrbUSW0-g518kY5H-MgXxPF9eUGh_WbeK-qH- -BfXfwY-8yvztx945hNQ6JR8vpKMzd-vZFrymbRV7i8CRQFwD7qZpIdOzyCNqasdlv7DiEZ_L2BFKNwR53-ep0GnpjJ1rqH_69w-D5FrGCunyubsuDwGurJRi-l4yQ7AVYhPC9mdwdwMc5IqehmCL77CDnPkmEUj6mYYhKQlUSlcaD9tYjP6grNUPKJ1EJHSEbZ6jQLRLc6sLPqx4bTeErle9yCm5wRpD_Kwrd19VY3jZF3VHwAkynSuyby5Tp1TQlm-zMRdq9bUJbDS87V_I4wS3VzCo5kmle-B7GHnkgAqkfHsBX0fzPvw9wGzP_SMZ9kyuweUnWyu7GkbTrpdFbwW3LWKz9x-2ZbhGsBdns1-0W00]--></g></svg>