<?xml version="1.0" encoding="us-ascii" standalone="no"?><svg xmlns="http://www.w3.org/2000/svg" xmlns:xlink="http://www.w3.org/1999/xlink" contentStyleType="text/css" height="734px" preserveAspectRatio="none" style="width:1347px;height:734px;background:#FFFFFF;" version="1.1" viewBox="0 0 1347 734" width="1347px" zoomAndPan="magnify"><defs/><g><text fill="#000000" font-family="Helvetica" font-size="14" font-weight="bold" lengthAdjust="spacing" textLength="201" x="566.25" y="20.7803">Flora High-Level Architecture</text><!--cluster Client Access--><g id="cluster_Client Access"><rect fill="#FCFDFB" height="236.5" rx="2.5" ry="2.5" style="stroke:#8B9683;stroke-width:1.0;" width="177" x="560" y="175.5"/><text fill="#000000" font-family="Helvetica" font-size="14" font-weight="bold" lengthAdjust="spacing" textLength="94" x="601.5" y="188.2803">Client Access</text></g><!--cluster Application--><g id="cluster_Application"><rect fill="#FCFDFB" height="263.5" rx="2.5" ry="2.5" style="stroke:#8B9683;stroke-width:1.0;" width="188" x="7" y="464.5"/><text fill="#000000" font-family="Helvetica" font-size="14" font-weight="bold" lengthAdjust="spacing" textLength="79" x="61.5" y="477.2803">Application</text></g><!--cluster External Services--><g id="cluster_External Services"><rect fill="#FCFDFB" height="97" rx="2.5" ry="2.5" style="stroke:#8B9683;stroke-width:1.0;" width="729" x="219" y="626.5"/><text fill="#000000" font-family="Helvetica" font-size="14" font-weight="bold" lengthAdjust="spacing" textLength="118" x="524.5" y="639.2803">External Services</text></g><!--entity cloudfront--><g id="elem_cloudfront"><path d="M605.6602,217.0454 C610.035,210.0212 615.1595,210.631 619.844,216.7102 C623.8419,209.6081 631.4019,207.9094 635.6459,216.4618 C639.5206,210.735 643.4004,209.296 648.3505,215.2967 C652.7799,208.2562 658.9292,208.3473 662.518,216.1017 C666.8225,209.5337 674.1545,209.4815 677.7604,216.8649 C682.343,210.0962 689.0184,210.3675 692.258,218.1985 C698.7789,220.1273 701.3114,225.0893 696.1212,230.6512 C702.1657,236.8465 699.4801,243.4152 691.4115,244.9678 C686.805,251.7138 682.3544,251.8725 676.8876,245.9544 C671.9821,252.0417 667.6237,252.2162 662.422,246.3116 C659.188,252.9386 653.402,254.6835 648.7759,247.7082 C644.834,254.1569 638.9896,253.4189 635.9975,246.7807 C631.7251,252.4747 624.9887,251.9636 621.7624,245.5507 C616.1321,251.9429 611.1317,252.9418 605.8368,245.1735 C596.8766,242.8704 596.092,237.7849 601.5529,231.0939 C596.1487,224.572 598.3009,219.8358 605.6602,217.0454 " fill="#F2F5EE" style="stroke:#8B9683;stroke-width:0.5;"/><text fill="#000000" font-family="Helvetica" font-size="14" lengthAdjust="spacing" textLength="71" x="612.5" y="234.2803">CloudFront</text></g><!--entity frontend--><g id="elem_frontend"><rect fill="#F1F1F1" height="62" rx="2.5" ry="2.5" style="stroke:#181818;stroke-width:0.5;" width="128" x="583" y="334"/><text fill="#000000" font-family="Helvetica" font-size="14" lengthAdjust="spacing" textLength="99" x="593" y="354.7803">React Frontend</text><text fill="#000000" font-family="Helvetica" font-size="14" lengthAdjust="spacing" textLength="108" x="593" y="368.7803">Vite + TypeScript</text><text fill="#000000" font-family="Helvetica" font-size="14" lengthAdjust="spacing" textLength="88" x="593" y="382.7803">apps/frontend</text></g><!--entity backend--><g id="elem_backend"><rect fill="#F1F1F1" height="48" rx="2.5" ry="2.5" style="stroke:#181818;stroke-width:0.5;" width="156" x="23" y="497.5"/><text fill="#000000" font-family="Helvetica" font-size="14" lengthAdjust="spacing" textLength="136" x="33" y="518.2803">Express Backend API</text><text fill="#000000" font-family="Helvetica" font-size="14" lengthAdjust="spacing" textLength="89" x="33" y="532.2803">apps/backend</text></g><!--entity postgres--><g id="elem_postgres"><path d="M39.5,665 C39.5,655 98,655 98,655 C98,655 156.5,655 156.5,665 L156.5,702 C156.5,712 98,712 98,712 C98,712 39.5,712 39.5,702 L39.5,665 " fill="#FCFDFB" style="stroke:#8B9683;stroke-width:0.5;"/><path d="M39.5,665 C39.5,675 98,675 98,675 C98,675 156.5,675 156.5,665 " fill="none" style="stroke:#8B9683;stroke-width:0.5;"/><text fill="#000000" font-family="Helvetica" font-size="14" lengthAdjust="spacing" textLength="97" x="49.5" y="689.7803">PostgreSQL 15</text><text fill="#000000" font-family="Helvetica" font-size="14" lengthAdjust="spacing" textLength="96" x="49.5" y="703.7803">Docker on EC2</text></g><!--entity auth0--><g id="elem_auth0"><rect fill="#F1F1F1" height="48" rx="2.5" ry="2.5" style="stroke:#181818;stroke-width:0.5;" width="110" x="822" y="659.5"/><text fill="#000000" font-family="Helvetica" font-size="14" lengthAdjust="spacing" textLength="37" x="832" y="680.2803">Auth0</text><text fill="#000000" font-family="Helvetica" font-size="14" lengthAdjust="spacing" textLength="90" x="832" y="694.2803">Authentication</text></g><!--entity stripe--><g id="elem_stripe"><rect fill="#F1F1F1" height="48" rx="2.5" ry="2.5" style="stroke:#181818;stroke-width:0.5;" width="166" x="621" y="659.5"/><text fill="#000000" font-family="Helvetica" font-size="14" lengthAdjust="spacing" textLength="37" x="631" y="680.2803">Stripe</text><text fill="#000000" font-family="Helvetica" font-size="14" lengthAdjust="spacing" textLength="146" x="631" y="694.2803">Payments + Webhooks</text></g><!--entity gemini--><g id="elem_gemini"><rect fill="#F1F1F1" height="48" rx="2.5" ry="2.5" style="stroke:#181818;stroke-width:0.5;" width="170" x="235" y="659.5"/><text fill="#000000" font-family="Helvetica" font-size="14" lengthAdjust="spacing" textLength="95" x="245" y="680.2803">Google Gemini</text><text fill="#000000" font-family="Helvetica" font-size="14" lengthAdjust="spacing" textLength="150" x="245" y="694.2803">AI Message Generation</text></g><!--entity email--><g id="elem_email"><rect fill="#F1F1F1" height="48" rx="2.5" ry="2.5" style="stroke:#181818;stroke-width:0.5;" width="145" x="440.5" y="659.5"/><text fill="#000000" font-family="Helvetica" font-size="14" lengthAdjust="spacing" textLength="88" x="450.5" y="680.2803">SMTP / Gmail</text><text fill="#000000" font-family="Helvetica" font-size="14" lengthAdjust="spacing" textLength="125" x="450.5" y="694.2803">Transactional Email</text></g><!--entity customer--><g id="elem_customer"><ellipse cx="648" cy="49" fill="#F1F1F1" rx="8" ry="8" style="stroke:#181818;stroke-width:0.5;"/><path d="M648,57 L648,84 M635,65 L661,65 M648,84 L635,99 M648,84 L661,99 " fill="none" style="stroke:#181818;stroke-width:0.5;"/><text fill="#000000" font-family="Helvetica" font-size="14" lengthAdjust="spacing" textLength="62" x="617" y="111.2803">Customer</text></g><g id="elem_GMN24"><path d="M753,327.5 L753,361 L711.34,365 L753,369 L753,402.5 A0,0 0 0 0 753,402.5 L905,402.5 A0,0 0 0 0 905,402.5 L905,337.5 L895,327.5 L753,327.5 A0,0 0 0 0 753,327.5 " fill="#FEFFDD" style="stroke:#181818;stroke-width:0.5;"/><path d="M895,327.5 L895,337.5 L905,337.5 L895,327.5 " fill="#FEFFDD" style="stroke:#181818;stroke-width:0.5;"/><text fill="#000000" font-family="Helvetica" font-size="13" lengthAdjust="spacing" textLength="131" x="759" y="342.5103">Single-page storefront:</text><text fill="#000000" font-family="Helvetica" font-size="13" lengthAdjust="spacing" textLength="103" x="759" y="355.5103">- browse products</text><text fill="#000000" font-family="Helvetica" font-size="13" lengthAdjust="spacing" textLength="80" x="759" y="368.5103">- manage cart</text><text fill="#000000" font-family="Helvetica" font-size="13" lengthAdjust="spacing" textLength="61" x="759" y="381.5103">- checkout</text><text fill="#000000" font-family="Helvetica" font-size="13" lengthAdjust="spacing" textLength="100" x="759" y="394.5103">- account actions</text></g><g id="elem_GMN27"><path d="M214,477.5 L214,517.5 L179.4,521.5 L214,525.5 L214,565.5 A0,0 0 0 0 214,565.5 L348,565.5 A0,0 0 0 0 348,565.5 L348,487.5 L338,477.5 L214,477.5 A0,0 0 0 0 214,477.5 " fill="#FEFFDD" style="stroke:#181818;stroke-width:0.5;"/><path d="M338,477.5 L338,487.5 L348,487.5 L338,477.5 " fill="#FEFFDD" style="stroke:#181818;stroke-width:0.5;"/><text fill="#000000" font-family="Helvetica" font-size="13" lengthAdjust="spacing" textLength="113" x="220" y="492.5103">Core business API:</text><text fill="#000000" font-family="Helvetica" font-size="13" lengthAdjust="spacing" textLength="58" x="220" y="505.5103">- products</text><text fill="#000000" font-family="Helvetica" font-size="13" lengthAdjust="spacing" textLength="44" x="220" y="518.5103">- orders</text><text fill="#000000" font-family="Helvetica" font-size="13" lengthAdjust="spacing" textLength="85" x="220" y="531.5103">- subscriptions</text><text fill="#000000" font-family="Helvetica" font-size="13" lengthAdjust="spacing" textLength="40" x="220" y="544.5103">- users</text><text fill="#000000" font-family="Helvetica" font-size="13" lengthAdjust="spacing" textLength="72" x="220" y="557.5103">- AI features</text></g><g id="elem_GMN30"><path d="M939.5,347 L939.5,383 A0,0 0 0 0 939.5,383 L1340.5,383 A0,0 0 0 0 1340.5,383 L1340.5,357 L1330.5,347 L1079.16,347 L698.8,245.18 L1071.16,347 L939.5,347 A0,0 0 0 0 939.5,347 " fill="#FEFFDD" style="stroke:#181818;stroke-width:0.5;"/><path d="M1330.5,347 L1330.5,357 L1340.5,357 L1330.5,347 " fill="#FEFFDD" style="stroke:#181818;stroke-width:0.5;"/><text fill="#000000" font-family="Helvetica" font-size="13" lengthAdjust="spacing" textLength="206" x="945.5" y="362.0103">CloudFront is the public entry point.</text><text fill="#000000" font-family="Helvetica" font-size="13" lengthAdjust="spacing" textLength="380" x="945.5" y="375.0103">It serves frontend assets and forwards API traffic to the backend.</text></g><!--link customer to cloudfront--><g id="link_customer_cloudfront"><path d="M648,114.67 C648,143.81 648,177.8 648,202.08 " fill="none" id="customer-to-cloudfront" style="stroke:#5F6B5A;stroke-width:1.1;"/><polygon fill="#5F6B5A" points="648,208.08,652,199.08,648,203.08,644,199.08,648,208.08" style="stroke:#5F6B5A;stroke-width:1.1;"/><text fill="#000000" font-family="Helvetica" font-size="13" lengthAdjust="spacing" textLength="43" x="649" y="155.5103">HTTPS</text></g><!--link cloudfront to frontend--><g id="link_cloudfront_frontend"><path d="M647.84,252.79 C647.67,274.73 647.4537,303.1402 647.2737,327.8802 " fill="none" id="cloudfront-to-frontend" style="stroke:#5F6B5A;stroke-width:1.1;"/><polygon fill="#5F6B5A" points="647.23,333.88,651.2954,324.9093,647.2664,328.8801,643.2956,324.8511,647.23,333.88" style="stroke:#5F6B5A;stroke-width:1.1;"/><text fill="#000000" font-family="Helvetica" font-size="13" lengthAdjust="spacing" textLength="108" x="648.59" y="293.5103">Serve SPA assets</text></g><!--link frontend to backend--><g id="link_frontend_backend"><path d="M582.87,371.02 C493.46,379.75 327.65,402.3 197,456.5 C172.58,466.63 152.6068,479.7124 134.3468,493.5124 " fill="none" id="frontend-to-backend" style="stroke:#5F6B5A;stroke-width:1.1;"/><polygon fill="#5F6B5A" points="129.56,497.13,139.1519,494.8948,133.549,494.1153,134.3284,488.5124,129.56,497.13" style="stroke:#5F6B5A;stroke-width:1.1;"/><text fill="#000000" font-family="Helvetica" font-size="13" lengthAdjust="spacing" textLength="61" x="256.39" y="443.5103">REST API</text></g><!--link backend to postgres--><g id="link_backend_postgres"><path d="M100.56,545.77 C100.02,574.63 99.2128,617.7911 98.6328,648.6311 " fill="none" id="backend-to-postgres" style="stroke:#5F6B5A;stroke-width:1.1;"/><polygon fill="#5F6B5A" points="98.52,654.63,102.6885,645.7068,98.614,649.6309,94.6899,645.5564,98.52,654.63" style="stroke:#5F6B5A;stroke-width:1.1;"/><text fill="#000000" font-family="Helvetica" font-size="13" lengthAdjust="spacing" textLength="79" x="100.59" y="606.5103">Prisma / SQL</text></g><!--link frontend to auth0--><g id="link_frontend_auth0"><path d="M675.98,396.48 C715.26,438.81 786.09,518.87 835,595.5 C848.08,616 857.4539,635.6762 865.1739,653.6662 " fill="none" id="frontend-to-auth0" style="stroke:#5F6B5A;stroke-width:1.1;"/><polygon fill="#5F6B5A" points="867.54,659.18,867.6667,649.332,865.5682,654.5852,860.315,652.4868,867.54,659.18" style="stroke:#5F6B5A;stroke-width:1.1;"/><text fill="#000000" font-family="Helvetica" font-size="13" lengthAdjust="spacing" textLength="121" x="813.5" y="525.0103">Login / access token</text></g><!--link backend to auth0--><g id="link_backend_auth0"><path d="M144.25,545.9 C160.36,553.51 179.08,561.13 197,565.5 C423.2,620.66 491.49,550.86 720,595.5 C740.28,599.46 744.04,605.18 764,610.5 C781.94,615.28 788.36,610.26 805,618.5 C824.93,628.37 839.4465,640.9205 852.7665,654.8705 " fill="none" id="backend-to-auth0" style="stroke:#5F6B5A;stroke-width:1.1;"/><polygon fill="#5F6B5A" points="856.91,659.21,853.5877,649.9384,853.4571,655.5938,847.8017,655.4631,856.91,659.21" style="stroke:#5F6B5A;stroke-width:1.1;"/><text fill="#000000" font-family="Helvetica" font-size="13" lengthAdjust="spacing" textLength="65" x="765" y="606.5103">Verify JWT</text></g><!--link backend to stripe--><g id="link_backend_stripe"><path d="M144.78,545.95 C160.77,553.48 179.3,561.02 197,565.5 C370.26,609.35 432.09,529.05 598,595.5 C632.48,609.31 660.1831,634.2252 679.7831,655.0052 " fill="none" id="backend-to-stripe" style="stroke:#5F6B5A;stroke-width:1.1;"/><polygon fill="#5F6B5A" points="683.9,659.37,680.6345,650.0783,680.4692,655.7327,674.8148,655.5675,683.9,659.37" style="stroke:#5F6B5A;stroke-width:1.1;"/><text fill="#000000" font-family="Helvetica" font-size="13" lengthAdjust="spacing" textLength="86" x="625.43" y="606.5103">Payment flows</text></g><!--link stripe to backend--><g id="link_stripe_backend"><path d="M675.38,659.29 C656.11,645 629.47,627.71 603,618.5 C570.92,607.34 560.17,617.8 527,610.5 C506.82,606.06 503.18,599.94 483,595.5 C358.18,568.04 320.42,598.7 197,565.5 C179.54,560.8 166.6658,555.8501 150.7658,548.4201 " fill="none" id="stripe-to-backend" style="stroke:#5F6B5A;stroke-width:1.1;"/><polygon fill="#5F6B5A" points="145.33,545.88,151.7903,553.314,149.8598,547.9968,155.1771,546.0663,145.33,545.88" style="stroke:#5F6B5A;stroke-width:1.1;"/><text fill="#000000" font-family="Helvetica" font-size="13" lengthAdjust="spacing" textLength="61" x="528" y="606.5103">Webhooks</text></g><!--link backend to gemini--><g id="link_backend_gemini"><path d="M132.84,545.77 C174.37,576.1 241.7353,625.3204 283.2753,655.6704 " fill="none" id="backend-to-gemini" style="stroke:#5F6B5A;stroke-width:1.1;"/><polygon fill="#5F6B5A" points="288.12,659.21,283.2127,650.6708,284.0828,656.2603,278.4932,657.1303,288.12,659.21" style="stroke:#5F6B5A;stroke-width:1.1;"/><text fill="#000000" font-family="Helvetica" font-size="13" lengthAdjust="spacing" textLength="117" x="218.07" y="606.5103">Generate messages</text></g><!--link backend to email--><g id="link_backend_email"><path d="M147.55,545.83 C163.01,552.9 180.48,560.19 197,565.5 C294.8,596.96 329.48,573.83 422,618.5 C444.61,629.42 462.9826,642.0681 480.2626,655.4981 " fill="none" id="backend-to-email" style="stroke:#5F6B5A;stroke-width:1.1;"/><polygon fill="#5F6B5A" points="485,659.18,480.3485,650.4988,481.0521,656.1117,475.4392,656.8154,485,659.18" style="stroke:#5F6B5A;stroke-width:1.1;"/><text fill="#000000" font-family="Helvetica" font-size="13" lengthAdjust="spacing" textLength="72" x="401.84" y="606.5103">Send emails</text></g><!--SRC=[XLN1Rjim3BthAuZqEAHTkwLhUnYGf77QeHsoEcWlkSWsdGYn9KEIcmR3_dsKR2TsidOdI-BZ8_L8qLRO3278bEPm9vQh_WE-OWP37Q-4nTYM6XcpgW2h85BMgXmIeSaWb6HcBMJ1DSyXul5wgLKfax4YBjWuxvRTh7YYDa8k8UMPQLiIJ7cPsK19-vFd27UOlQ8LCMzXOfKNIgAqeTrIjYuybykiJLDG0do9xmE6MgjDbTp98BWS3OQ7nlbAn6k9ni3vwVanzKZf17NDS3MwlhpwyW_GWGudmRVWElZQ0kvo-vXl3pjY70UtmQYjJgRAv6Es2dB4T14C9fDsBRZb4JV_IMs7UYSpncDBszwuDDGkg7l03SJrXh5QAR9dWaeAmpWcpNlmcq6LfxFG9z3K4fMlswPkwo1DBq3l2IaIU1pAP26VgUVW4yot1OQn5eLTI5uKvYoj4PwisR0_hLI6HP5HoxcchXFPHvcy5TerXRik-S5mTb_pHjM9fwtNvDh80xsPCdQfCVpr0EU3XRnL1D6W94p65zwfg02caylapQAMF8CGzQiWROuo6fPszNaXtOVskxo9a3jB5nnQKW8NSiQtEHqO4kW5evLIQ-DTZBTtVQPAKUV157CX1GMwXqTIm6KtHObw7s_f4GS17-SpE8DfpaMsa7FDfU5-ND2L9kxGUw9RkNitZG7z_lTMfU46xkRpMSXQHmxHb8_iJX-4S3OaFeFMi9tD0Uk24Evf4ivTrLXpvCoDz6IVQM5oJYbJeLYNnEj9a0Ur598GtFSgpKBYwT0rm6VK8jt2ZvSvwzWhbLsmgWoGPcfZM7tSpRSfJvUXafhCTGaGygecfWFpkdfnwC1lY4SgWckQxXPKkdy1eN03fb-umb8HD7hB3Uj3HEEGEhZGAYbZKhOFEPSE5dDjQHUlC5whqYr94Xe15geQ6-RYkdY7KPi7CgOu49L6-4bBPN7nMe7yw74BKqR6ls9FsuVILEVKZIbozsCw2bR_e2XQQsJiXma8AjsAhbL6zDg1og2tr0X2sbDsRy6uVjeFYBghWDCoLNh3TUBp1Qjvcf8__H4TMtsnqtqoVm40]--></g></svg>